<svg height="540" node-id="1" sillyvg="true" template-height="540" template-width="960" version="1.1" viewBox="0 0 960 540" width="960" xmlns="http://www.w3.org/2000/svg" xmlns:xlink="http://www.w3.org/1999/xlink"><defs node-id="104"></defs><path d="M 0.00 0.00 L 960.00 0.00 L 960.00 540.00 L 0.00 540.00 Z" fill="none" node-id="108" stroke="none" target-height="540" target-width="960" target-x="0" target-y="0"/><path d="M 0.00 0.00 L 960.00 0.00 L 960.00 540.00 L 0.00 540.00 Z" fill="#ffffff" fill-rule="nonzero" node-id="110" stroke="none" target-height="540" target-width="960" target-x="0" target-y="0"/><g node-id="316"><path d="M 688.48 385.33 L 726.66 423.52 C 739.55 436.41 739.55 457.30 726.66 470.19 L 726.66 470.19 C 713.78 483.07 692.88 483.07 680.00 470.19 L 641.81 432.00 C 628.92 419.12 628.92 398.22 641.81 385.33 L 641.81 385.33 C 654.70 372.45 675.60 372.45 688.48 385.33 Z" fill="#b6edae" fill-rule="nonzero" group-id="1" id="矩形_13" node-id="5" stroke="none" target-height="110.62802" target-width="110.62897" target-x="628.924" target-y="372.447"/><path d="M 221.63 91.28 L 324.87 194.52 C 335.02 204.67 335.02 221.14 324.87 231.29 L 324.87 231.29 C 314.72 241.44 298.25 241.44 288.10 231.29 L 184.86 128.05 C 174.71 117.90 174.71 101.44 184.86 91.28 L 184.86 91.28 C 195.02 81.13 211.48 81.13 221.63 91.28 Z" fill="#b6edae" fill-rule="nonzero" group-id="1" id="矩形_15" node-id="6" stroke="none" target-height="160.314" target-width="160.31499" target-x="174.709" target-y="81.13"/><path d="M 309.63 58.28 L 412.87 161.52 C 423.02 171.67 423.02 188.14 412.87 198.29 L 412.87 198.29 C 402.72 208.44 386.25 208.44 376.10 198.29 L 272.86 95.05 C 262.71 84.90 262.71 68.44 272.86 58.28 L 272.86 58.28 C 283.02 48.13 299.48 48.13 309.63 58.28 Z" fill="#b6edae" fill-rule="nonzero" group-id="1" id="矩形_16" node-id="7" stroke="none" target-height="160.314" target-width="160.31497" target-x="262.709" target-y="48.13"/><path d="M 689.84 291.88 L 747.12 349.16 C 754.73 356.77 754.73 369.12 747.12 376.73 L 747.12 376.73 C 739.50 384.35 727.16 384.35 719.54 376.73 L 662.27 319.46 C 654.65 311.84 654.65 299.50 662.27 291.88 L 662.27 291.88 C 669.88 284.27 682.23 284.27 689.84 291.88 Z" fill="#b6edae" fill-rule="nonzero" group-id="1" id="矩形_14" node-id="8" stroke="none" target-height="100.082" target-width="100.08203" target-x="654.652" target-y="284.266"/><path d="M 722.00 270.00 C 722.00 403.65 613.65 512.00 480.00 512.00 C 346.35 512.00 238.00 403.65 238.00 270.00 C 238.00 136.35 346.35 28.00 480.00 28.00 C 613.65 28.00 722.00 136.35 722.00 270.00 Z" fill="#b6edae" fill-rule="nonzero" group-id="1" id="椭圆_1" node-id="9" stroke="none" target-height="484" target-width="484" target-x="238" target-y="28"/></g><g node-id="317"><path d="M 556.00 463.00 L 458.00 463.00 C 455.24 463.00 453.00 460.76 453.00 458.00 C 453.00 455.24 455.24 453.00 458.00 453.00 L 556.00 453.00 C 558.76 453.00 561.00 455.24 561.00 458.00 C 561.00 460.76 558.76 463.00 556.00 463.00 Z" fill="#3d3d63" fill-rule="nonzero" group-id="2" node-id="120" stroke="none" target-height="10" target-width="108" target-x="453" target-y="453"/><path d="M 589.00 487.00 L 480.00 487.00 C 477.24 487.00 475.00 484.76 475.00 482.00 C 475.00 479.24 477.24 477.00 480.00 477.00 L 589.00 477.00 C 591.76 477.00 594.00 479.24 594.00 482.00 C 594.00 484.76 591.76 487.00 589.00 487.00 Z" fill="#3d3d63" fill-rule="nonzero" group-id="2" node-id="122" stroke="none" target-height="10" target-width="119" target-x="475" target-y="477"/><path d="M 403.00 463.00 L 336.00 463.00 C 333.24 463.00 331.00 460.76 331.00 458.00 C 331.00 455.24 333.24 453.00 336.00 453.00 L 403.00 453.00 C 405.76 453.00 408.00 455.24 408.00 458.00 C 408.00 460.76 405.76 463.00 403.00 463.00 Z" fill="#3d3d63" fill-rule="nonzero" group-id="2" node-id="124" stroke="none" target-height="10" target-width="77" target-x="331" target-y="453"/><path d="M 701.00 487.00 L 645.00 487.00 C 642.24 487.00 640.00 484.76 640.00 482.00 C 640.00 479.24 642.24 477.00 645.00 477.00 L 701.00 477.00 C 703.76 477.00 706.00 479.24 706.00 482.00 C 706.00 484.76 703.76 487.00 701.00 487.00 Z" fill="#3d3d63" fill-rule="nonzero" group-id="2" node-id="126" stroke="none" target-height="10" target-width="66" target-x="640" target-y="477"/><path d="M 439.00 487.00 L 283.00 487.00 C 280.24 487.00 278.00 484.76 278.00 482.00 C 278.00 479.24 280.24 477.00 283.00 477.00 L 439.00 477.00 C 441.76 477.00 444.00 479.24 444.00 482.00 C 444.00 484.76 441.76 487.00 439.00 487.00 Z" fill="#3d3d63" fill-rule="nonzero" group-id="2" node-id="128" stroke="none" target-height="10" target-width="166" target-x="278" target-y="477"/><path d="M 431.00 463.00 C 429.68 463.00 428.40 462.47 427.46 461.53 C 426.53 460.60 426.00 459.32 426.00 458.00 C 426.00 456.68 426.53 455.40 427.46 454.46 C 428.39 453.53 429.68 453.00 431.00 453.00 C 432.32 453.00 433.61 453.53 434.54 454.46 C 435.47 455.40 436.00 456.68 436.00 458.00 C 436.00 459.32 435.47 460.60 434.54 461.53 C 433.61 462.47 432.32 463.00 431.00 463.00 Z" fill="#3d3d63" fill-rule="nonzero" group-id="2" node-id="130" stroke="none" target-height="10" target-width="10" target-x="426" target-y="453"/><path d="M 621.00 487.00 C 619.69 487.00 618.40 486.47 617.46 485.53 C 616.53 484.60 616.00 483.32 616.00 482.00 C 616.00 480.68 616.53 479.40 617.46 478.46 C 618.39 477.53 619.68 477.00 621.00 477.00 C 622.32 477.00 623.61 477.53 624.54 478.46 C 625.47 479.40 626.00 480.69 626.00 482.00 C 626.00 483.32 625.47 484.60 624.54 485.53 C 623.60 486.47 622.31 487.00 621.00 487.00 Z" fill="#3d3d63" fill-rule="nonzero" group-id="2" node-id="132" stroke="none" target-height="10" target-width="10" target-x="616" target-y="477"/></g><g node-id="318"><path d="M 802.00 312.21 C 801.49 312.21 800.98 312.02 800.59 311.63 L 779.37 290.41 C 778.59 289.63 778.59 288.37 779.37 287.59 L 800.59 266.37 C 801.37 265.59 802.63 265.59 803.41 266.37 L 824.63 287.59 C 825.41 288.37 825.41 289.63 824.63 290.41 L 803.41 311.63 C 803.02 312.02 802.51 312.21 802.00 312.21 Z M 783.62 289.00 L 802.00 307.38 L 820.38 289.00 L 802.00 270.62 L 783.62 289.00 Z" fill="#b6edae" fill-rule="nonzero" group-id="3" node-id="136" stroke="none" target-height="46.621002" target-width="46.81604" target-x="778.592" target-y="265.592"/><path d="M 228.10 218.90 C 227.59 218.90 227.08 218.71 226.69 218.31 L 216.79 208.41 C 216.01 207.63 216.01 206.37 216.79 205.59 L 226.69 195.69 C 227.47 194.91 228.74 194.91 229.51 195.69 L 239.41 205.59 C 240.19 206.37 240.19 207.63 239.41 208.41 L 229.51 218.31 C 229.12 218.71 228.61 218.90 228.10 218.90 Z M 221.03 207.00 L 228.10 214.07 L 235.17 207.00 L 228.10 199.93 L 221.03 207.00 Z" fill="#b6edae" fill-rule="nonzero" group-id="3" node-id="138" stroke="none" target-height="23.992996" target-width="24.188004" target-x="216.007" target-y="194.907"/><path d="M 691.00 328.90 C 690.47 328.90 689.96 328.69 689.59 328.31 L 679.69 318.41 C 678.91 317.63 678.91 316.37 679.69 315.59 L 689.59 305.69 C 690.37 304.91 691.63 304.91 692.41 305.69 L 702.31 315.59 C 703.09 316.37 703.09 317.63 702.31 318.41 L 692.41 328.31 C 692.04 328.69 691.53 328.90 691.00 328.90 Z M 683.93 317.00 L 691.00 324.07 L 698.07 317.00 L 691.00 309.93 L 683.93 317.00 Z" fill="#ffffff" fill-rule="nonzero" group-id="3" node-id="140" stroke="none" target-height="23.993988" target-width="24.187988" target-x="678.906" target-y="304.906"/><path d="M 544.00 67.90 C 543.49 67.90 542.98 67.70 542.59 67.31 L 532.69 57.41 C 531.91 56.63 531.91 55.37 532.69 54.59 L 542.59 44.69 C 543.37 43.91 544.63 43.91 545.41 44.69 L 555.31 54.59 C 556.09 55.37 556.09 56.63 555.31 57.41 L 545.41 67.31 C 545.02 67.70 544.51 67.90 544.00 67.90 Z M 536.93 56.00 L 544.00 63.07 L 551.07 56.00 L 544.00 48.93 L 536.93 56.00 Z" fill="#ffffff" fill-rule="nonzero" group-id="3" node-id="142" stroke="none" target-height="23.993" target-width="24.187988" target-x="531.906" target-y="43.907"/><g node-id="331"><path d="M 231.00 418.50 L 230.74 422.28 L 230.02 425.83 L 228.84 429.20 L 227.23 432.40 L 225.27 435.30 L 222.95 437.95 L 220.30 440.27 L 217.40 442.23 L 214.20 443.84 L 210.83 445.02 L 207.28 445.74 L 203.50 446.00 L 199.72 445.74 L 196.17 445.02 L 192.80 443.84 L 189.60 442.23 L 186.70 440.27 L 184.05 437.95 L 181.73 435.30 L 179.77 432.40 L 178.16 429.20 L 176.98 425.83 L 176.26 422.28 L 176.00 418.50 L 176.26 414.72 L 176.98 411.17 L 178.16 407.80 L 179.77 404.60 L 181.73 401.70 L 184.05 399.05 L 186.70 396.73 L 189.60 394.77 L 192.80 393.16 L 196.17 391.98 L 199.72 391.26 L 203.50 391.00 L 207.28 391.26 L 210.83 391.98 L 214.20 393.16 L 217.40 394.77 L 220.30 396.73 L 222.95 399.05 L 225.27 401.70 L 227.23 404.60 L 228.84 407.80 L 230.02 411.17 L 230.74 414.72 L 231.00 418.50 Z" fill="none" group-id="3,16" node-id="145" stroke="none" target-height="55" target-width="55" target-x="176" target-y="391"/><path d="M 203.50 446.00 L 199.73 445.74 L 196.18 445.01 L 192.81 443.84 L 189.61 442.23 L 186.71 440.27 L 184.06 437.94 L 181.73 435.29 L 179.77 432.38 L 178.16 429.19 L 176.99 425.82 L 176.26 422.27 L 176.00 418.50 L 176.26 414.73 L 176.99 411.18 L 178.16 407.81 L 179.77 404.62 L 181.73 401.71 L 184.06 399.06 L 186.71 396.73 L 189.61 394.77 L 192.81 393.16 L 196.18 391.99 L 199.73 391.26 L 203.50 391.00 L 207.27 391.26 L 210.82 391.99 L 214.19 393.16 L 217.39 394.77 L 220.29 396.73 L 222.94 399.06 L 225.27 401.71 L 227.23 404.62 L 228.84 407.81 L 230.01 411.18 L 230.74 414.73 L 231.00 418.50 L 230.74 422.27 L 230.01 425.82 L 228.84 429.19 L 227.23 432.38 L 225.27 435.29 L 222.94 437.94 L 220.29 440.27 L 217.39 442.23 L 214.19 443.84 L 210.82 445.01 L 207.27 445.74 L 203.50 446.00 Z M 203.50 395.00 L 200.28 395.22 L 197.24 395.84 L 194.36 396.85 L 191.63 398.22 L 189.15 399.90 L 186.89 401.89 L 184.90 404.15 L 183.22 406.63 L 181.85 409.36 L 180.84 412.24 L 180.22 415.28 L 180.00 418.50 L 180.22 421.72 L 180.84 424.76 L 181.85 427.64 L 183.22 430.37 L 184.90 432.85 L 186.89 435.11 L 189.15 437.10 L 191.63 438.78 L 194.36 440.15 L 197.24 441.16 L 200.28 441.78 L 203.50 442.00 L 206.72 441.78 L 209.76 441.16 L 212.64 440.15 L 215.37 438.78 L 217.85 437.10 L 220.11 435.11 L 222.10 432.85 L 223.78 430.37 L 225.15 427.64 L 226.16 424.76 L 226.78 421.72 L 227.00 418.50 L 226.78 415.28 L 226.16 412.24 L 225.15 409.36 L 223.78 406.63 L 222.10 404.15 L 220.11 401.89 L 217.85 399.90 L 215.37 398.22 L 212.64 396.85 L 209.76 395.84 L 206.72 395.22 L 203.50 395.00 Z" fill="#b6edae" fill-rule="nonzero" group-id="3,16" node-id="147" stroke="none" target-height="55" target-width="55" target-x="176" target-y="391"/></g><g node-id="332"><path d="M 221.00 113.50 L 220.77 115.96 L 220.16 118.22 L 219.16 120.31 L 217.82 122.21 L 216.21 123.82 L 214.31 125.16 L 212.22 126.16 L 209.96 126.77 L 207.50 127.00 L 205.04 126.77 L 202.78 126.16 L 200.69 125.16 L 198.79 123.82 L 197.18 122.21 L 195.84 120.31 L 194.84 118.22 L 194.23 115.96 L 194.00 113.50 L 194.23 111.04 L 194.84 108.78 L 195.84 106.69 L 197.18 104.79 L 198.79 103.18 L 200.69 101.84 L 202.78 100.84 L 205.04 100.23 L 207.50 100.00 L 209.96 100.23 L 212.22 100.84 L 214.31 101.84 L 216.21 103.18 L 217.82 104.79 L 219.16 106.69 L 220.16 108.78 L 220.77 111.04 L 221.00 113.50 Z" fill="none" group-id="3,17" node-id="151" stroke="none" target-height="27" target-width="27" target-x="194" target-y="100"/><path d="M 207.50 127.00 L 205.04 126.77 L 202.78 126.15 L 200.69 125.15 L 198.80 123.81 L 197.19 122.20 L 195.85 120.31 L 194.85 118.22 L 194.23 115.96 L 194.00 113.50 L 194.23 111.04 L 194.85 108.78 L 195.85 106.69 L 197.19 104.80 L 198.80 103.19 L 200.69 101.85 L 202.78 100.85 L 205.04 100.23 L 207.50 100.00 L 209.96 100.23 L 212.22 100.85 L 214.31 101.85 L 216.20 103.19 L 217.81 104.80 L 219.15 106.69 L 220.15 108.78 L 220.77 111.04 L 221.00 113.50 L 220.77 115.96 L 220.15 118.22 L 219.15 120.31 L 217.81 122.20 L 216.20 123.81 L 214.31 125.15 L 212.22 126.15 L 209.96 126.77 L 207.50 127.00 Z M 207.50 104.00 L 205.77 104.16 L 204.18 104.60 L 202.71 105.30 L 200.79 106.79 L 199.30 108.71 L 198.60 110.18 L 198.16 111.77 L 198.00 113.50 L 198.16 115.23 L 198.60 116.82 L 199.30 118.29 L 200.79 120.21 L 202.71 121.70 L 204.18 122.40 L 205.77 122.84 L 207.50 123.00 L 209.23 122.84 L 210.82 122.40 L 212.29 121.70 L 214.21 120.21 L 215.70 118.29 L 216.40 116.82 L 216.84 115.23 L 217.00 113.50 L 216.84 111.77 L 216.40 110.18 L 215.70 108.71 L 214.21 106.79 L 212.29 105.30 L 210.82 104.60 L 209.23 104.16 L 207.50 104.00 Z" fill="#ffffff" fill-rule="nonzero" group-id="3,17" node-id="153" stroke="none" target-height="27" target-width="27" target-x="194" target-y="100"/></g><g node-id="333"><path d="M 333.00 450.50 L 332.77 452.96 L 332.16 455.22 L 331.16 457.31 L 329.82 459.21 L 328.21 460.82 L 326.31 462.16 L 324.22 463.16 L 321.96 463.77 L 319.50 464.00 L 317.04 463.77 L 314.78 463.16 L 312.69 462.16 L 310.79 460.82 L 309.18 459.21 L 307.84 457.31 L 306.84 455.22 L 306.23 452.96 L 306.00 450.50 L 306.23 448.04 L 306.84 445.78 L 307.84 443.69 L 309.18 441.79 L 310.79 440.18 L 312.69 438.84 L 314.78 437.84 L 317.04 437.23 L 319.50 437.00 L 321.96 437.23 L 324.22 437.84 L 326.31 438.84 L 328.21 440.18 L 329.82 441.79 L 331.16 443.69 L 332.16 445.78 L 332.77 448.04 L 333.00 450.50 Z" fill="none" group-id="3,18" node-id="157" stroke="none" target-height="27" target-width="27" target-x="306" target-y="437"/><path d="M 319.50 464.00 L 317.04 463.77 L 314.78 463.15 L 312.69 462.15 L 310.80 460.81 L 309.19 459.20 L 307.85 457.31 L 306.85 455.22 L 306.23 452.96 L 306.00 450.50 L 306.23 448.04 L 306.85 445.78 L 307.85 443.69 L 309.19 441.80 L 310.80 440.19 L 312.69 438.85 L 314.78 437.85 L 317.04 437.23 L 319.50 437.00 L 321.96 437.23 L 324.22 437.85 L 326.31 438.85 L 328.20 440.19 L 329.81 441.80 L 331.15 443.69 L 332.15 445.78 L 332.77 448.04 L 333.00 450.50 L 332.77 452.96 L 332.15 455.22 L 331.15 457.31 L 329.81 459.20 L 328.20 460.81 L 326.31 462.15 L 324.22 463.15 L 321.96 463.77 L 319.50 464.00 Z M 319.50 441.00 L 317.77 441.16 L 316.18 441.60 L 314.71 442.30 L 312.79 443.79 L 311.30 445.71 L 310.60 447.18 L 310.16 448.77 L 310.00 450.50 L 310.16 452.23 L 310.60 453.82 L 311.30 455.29 L 312.79 457.21 L 314.71 458.70 L 316.18 459.40 L 317.77 459.84 L 319.50 460.00 L 321.23 459.84 L 322.82 459.40 L 324.29 458.70 L 326.21 457.21 L 327.70 455.29 L 328.40 453.82 L 328.84 452.23 L 329.00 450.50 L 328.84 448.77 L 328.40 447.18 L 327.70 445.71 L 326.21 443.79 L 324.29 442.30 L 322.82 441.60 L 321.23 441.16 L 319.50 441.00 Z" fill="#ffffff" fill-rule="nonzero" group-id="3,18" node-id="159" stroke="none" target-height="27" target-width="27" target-x="306" target-y="437"/></g><g node-id="334"><path d="M 457.00 98.50 L 456.84 100.23 L 456.41 101.82 L 455.70 103.29 L 454.22 105.22 L 452.29 106.70 L 450.82 107.41 L 449.23 107.84 L 447.50 108.00 L 445.77 107.84 L 444.18 107.41 L 442.71 106.70 L 440.78 105.22 L 439.30 103.29 L 438.59 101.82 L 438.16 100.23 L 438.00 98.50 L 438.16 96.77 L 438.59 95.18 L 439.30 93.71 L 440.78 91.78 L 442.71 90.30 L 444.18 89.59 L 445.77 89.16 L 447.50 89.00 L 449.23 89.16 L 450.82 89.59 L 452.29 90.30 L 454.22 91.78 L 455.70 93.71 L 456.41 95.18 L 456.84 96.77 L 457.00 98.50 Z" fill="none" group-id="3,19" node-id="163" stroke="none" target-height="19" target-width="19" target-x="438" target-y="89"/><path d="M 447.50 108.00 L 445.77 107.84 L 444.18 107.40 L 442.71 106.70 L 440.79 105.21 L 439.30 103.29 L 438.60 101.82 L 438.16 100.23 L 438.00 98.50 L 438.16 96.77 L 438.60 95.18 L 439.30 93.71 L 440.79 91.79 L 442.71 90.30 L 444.18 89.60 L 445.77 89.16 L 447.50 89.00 L 449.23 89.16 L 450.82 89.60 L 452.29 90.30 L 454.21 91.79 L 455.70 93.71 L 456.40 95.18 L 456.84 96.77 L 457.00 98.50 L 456.84 100.23 L 456.40 101.82 L 455.70 103.29 L 454.21 105.21 L 452.29 106.70 L 450.82 107.40 L 449.23 107.84 L 447.50 108.00 Z M 447.50 93.00 L 446.01 93.21 L 444.73 93.75 L 443.61 94.61 L 442.75 95.73 L 442.21 97.01 L 442.00 98.50 L 442.21 99.99 L 442.75 101.27 L 443.61 102.39 L 444.73 103.25 L 446.01 103.79 L 447.50 104.00 L 448.99 103.79 L 450.27 103.25 L 451.39 102.39 L 452.25 101.27 L 452.79 99.99 L 453.00 98.50 L 452.79 97.01 L 452.25 95.73 L 451.39 94.61 L 450.27 93.75 L 448.99 93.21 L 447.50 93.00 Z" fill="#ffffff" fill-rule="nonzero" group-id="3,19" node-id="165" stroke="none" target-height="19" target-width="19" target-x="438" target-y="89"/></g><g node-id="335"><path d="M 692.00 49.00 L 691.75 51.74 L 691.06 54.25 L 689.95 56.57 L 688.46 58.68 L 686.68 60.46 L 684.57 61.95 L 682.25 63.06 L 679.74 63.75 L 677.00 64.00 L 674.26 63.75 L 671.75 63.06 L 669.43 61.95 L 667.32 60.46 L 665.54 58.68 L 664.05 56.57 L 662.94 54.25 L 662.25 51.74 L 662.00 49.00 L 662.25 46.26 L 662.94 43.75 L 664.05 41.43 L 665.54 39.32 L 667.32 37.54 L 669.43 36.05 L 671.75 34.94 L 674.26 34.25 L 677.00 34.00 L 679.74 34.25 L 682.25 34.94 L 684.57 36.05 L 686.68 37.54 L 688.46 39.32 L 689.95 41.43 L 691.06 43.75 L 691.75 46.26 L 692.00 49.00 Z" fill="none" group-id="3,20" node-id="169" stroke="none" target-height="30" target-width="30" target-x="662" target-y="34"/><path d="M 677.00 64.00 L 674.27 63.74 L 671.76 63.06 L 669.44 61.95 L 667.33 60.46 L 665.54 58.67 L 664.05 56.56 L 662.94 54.24 L 662.26 51.73 L 662.00 49.00 L 662.26 46.27 L 662.94 43.76 L 664.05 41.44 L 665.54 39.33 L 667.33 37.54 L 669.44 36.05 L 671.76 34.94 L 674.27 34.26 L 677.00 34.00 L 679.73 34.26 L 682.24 34.94 L 684.56 36.05 L 686.67 37.54 L 688.46 39.33 L 689.95 41.44 L 691.06 43.76 L 691.74 46.27 L 692.00 49.00 L 691.74 51.73 L 691.06 54.24 L 689.95 56.56 L 688.46 58.67 L 686.67 60.46 L 684.56 61.95 L 682.24 63.06 L 679.73 63.74 L 677.00 64.00 Z M 677.00 38.00 L 675.00 38.19 L 673.16 38.69 L 671.45 39.50 L 669.91 40.60 L 668.60 41.91 L 667.50 43.45 L 666.69 45.16 L 666.19 47.00 L 666.00 49.00 L 666.19 51.00 L 666.69 52.84 L 667.50 54.55 L 668.60 56.09 L 669.91 57.40 L 671.45 58.50 L 673.16 59.31 L 675.00 59.81 L 677.00 60.00 L 679.00 59.81 L 680.84 59.31 L 682.55 58.50 L 684.09 57.40 L 685.40 56.09 L 686.50 54.55 L 687.31 52.84 L 687.81 51.00 L 688.00 49.00 L 687.81 47.00 L 687.31 45.16 L 686.50 43.45 L 685.40 41.91 L 684.09 40.60 L 682.55 39.50 L 680.84 38.69 L 679.00 38.19 L 677.00 38.00 Z" fill="#b6edae" fill-rule="nonzero" group-id="3,20" node-id="171" stroke="none" target-height="30" target-width="30" target-x="662" target-y="34"/></g><g node-id="336"><path d="M 377.00 37.00 L 376.67 39.41 L 375.77 41.54 L 374.36 43.36 L 372.54 44.77 L 370.41 45.67 L 368.00 46.00 L 365.59 45.67 L 363.46 44.77 L 361.64 43.36 L 360.23 41.54 L 359.33 39.41 L 359.00 37.00 L 359.33 34.59 L 360.23 32.46 L 361.64 30.64 L 363.46 29.23 L 365.59 28.33 L 368.00 28.00 L 370.41 28.33 L 372.54 29.23 L 374.36 30.64 L 375.77 32.46 L 376.67 34.59 L 377.00 37.00 Z" fill="none" group-id="3,21" node-id="175" stroke="none" target-height="18" target-width="18" target-x="359" target-y="28"/><path d="M 368.00 46.00 L 365.59 45.67 L 363.46 44.77 L 361.64 43.36 L 360.23 41.54 L 359.33 39.41 L 359.00 37.00 L 359.33 34.59 L 360.23 32.46 L 361.64 30.64 L 363.46 29.23 L 365.59 28.33 L 368.00 28.00 L 370.41 28.33 L 372.54 29.23 L 374.36 30.64 L 375.77 32.46 L 376.67 34.59 L 377.00 37.00 L 376.67 39.41 L 375.77 41.54 L 374.36 43.36 L 372.54 44.77 L 370.41 45.67 L 368.00 46.00 Z M 368.00 32.00 L 366.64 32.19 L 365.48 32.68 L 364.47 33.47 L 363.68 34.48 L 363.19 35.64 L 363.00 37.00 L 363.19 38.36 L 363.68 39.52 L 364.47 40.53 L 365.48 41.32 L 366.64 41.81 L 368.00 42.00 L 369.36 41.81 L 370.52 41.32 L 371.53 40.53 L 372.32 39.52 L 372.81 38.36 L 373.00 37.00 L 372.81 35.64 L 372.32 34.48 L 371.53 33.47 L 370.52 32.68 L 369.36 32.19 L 368.00 32.00 Z" fill="#b6edae" fill-rule="nonzero" group-id="3,21" node-id="177" stroke="none" target-height="18" target-width="18" target-x="359" target-y="28"/></g><g node-id="337"><path d="M 722.00 200.00 L 721.75 202.74 L 721.06 205.25 L 719.95 207.57 L 718.46 209.68 L 716.68 211.46 L 714.57 212.95 L 712.25 214.06 L 709.74 214.75 L 707.00 215.00 L 704.26 214.75 L 701.75 214.06 L 699.43 212.95 L 697.32 211.46 L 695.54 209.68 L 694.05 207.57 L 692.94 205.25 L 692.25 202.74 L 692.00 200.00 L 692.25 197.26 L 692.94 194.75 L 694.05 192.43 L 695.54 190.32 L 697.32 188.54 L 699.43 187.05 L 701.75 185.94 L 704.26 185.25 L 707.00 185.00 L 709.74 185.25 L 712.25 185.94 L 714.57 187.05 L 716.68 188.54 L 718.46 190.32 L 719.95 192.43 L 721.06 194.75 L 721.75 197.26 L 722.00 200.00 Z" fill="none" group-id="3,22" node-id="181" stroke="none" target-height="30" target-width="30" target-x="692" target-y="185"/><path d="M 707.00 215.00 L 704.27 214.74 L 701.76 214.06 L 699.44 212.95 L 697.33 211.46 L 695.54 209.67 L 694.05 207.56 L 692.94 205.24 L 692.26 202.73 L 692.00 200.00 L 692.26 197.27 L 692.94 194.76 L 694.05 192.44 L 695.54 190.33 L 697.33 188.54 L 699.44 187.05 L 701.76 185.94 L 704.27 185.26 L 707.00 185.00 L 709.73 185.26 L 712.24 185.94 L 714.56 187.05 L 716.67 188.54 L 718.46 190.33 L 719.95 192.44 L 721.06 194.76 L 721.74 197.27 L 722.00 200.00 L 721.74 202.73 L 721.06 205.24 L 719.95 207.56 L 718.46 209.67 L 716.67 211.46 L 714.56 212.95 L 712.24 214.06 L 709.73 214.74 L 707.00 215.00 Z M 707.00 189.00 L 705.00 189.19 L 703.16 189.69 L 701.45 190.50 L 699.91 191.60 L 698.60 192.91 L 697.50 194.45 L 696.69 196.16 L 696.19 198.00 L 696.00 200.00 L 696.19 202.00 L 696.69 203.84 L 697.50 205.55 L 698.60 207.09 L 699.91 208.40 L 701.45 209.50 L 703.16 210.31 L 705.00 210.81 L 707.00 211.00 L 709.00 210.81 L 710.84 210.31 L 712.55 209.50 L 714.09 208.40 L 715.40 207.09 L 716.50 205.55 L 717.31 203.84 L 717.81 202.00 L 718.00 200.00 L 717.81 198.00 L 717.31 196.16 L 716.50 194.45 L 715.40 192.91 L 714.09 191.60 L 712.55 190.50 L 710.84 189.69 L 709.00 189.19 L 707.00 189.00 Z" fill="#ffffff" fill-rule="nonzero" group-id="3,22" node-id="183" stroke="none" target-height="30" target-width="30" target-x="692" target-y="185"/></g></g><path d="M 658.00 437.00 L 302.00 437.00 C 298.69 437.00 296.00 434.31 296.00 431.00 C 296.00 427.69 298.69 425.00 302.00 425.00 L 658.00 425.00 C 661.31 425.00 664.00 427.69 664.00 431.00 C 664.00 434.31 661.31 437.00 658.00 437.00 Z" fill="#3d3d63" fill-rule="nonzero" node-id="187" stroke="none" target-height="12" target-width="368" target-x="296" target-y="425"/><path d="M 332.10 130.22 L 399.90 130.22 C 412.38 130.22 422.50 140.34 422.50 152.82 L 422.50 427.78 L 422.50 427.78 L 309.50 427.78 L 309.50 427.78 L 309.50 152.82 C 309.50 140.34 319.62 130.22 332.10 130.22 Z" fill="#fde174" fill-rule="nonzero" node-id="189" stroke="none" target-height="297.56702" target-width="113" target-x="309.5" target-y="130.217"/><path d="M 414.00 437.00 L 318.00 437.00 C 311.38 437.00 306.00 431.62 306.00 425.00 L 306.00 145.00 C 306.00 131.77 316.77 121.00 330.00 121.00 L 402.00 121.00 C 415.23 121.00 426.00 131.77 426.00 145.00 L 426.00 425.00 C 426.00 431.62 420.62 437.00 414.00 437.00 Z M 330.00 133.00 C 323.38 133.00 318.00 138.38 318.00 145.00 L 318.00 425.00 L 414.01 425.00 L 414.00 145.00 C 414.00 138.38 408.62 133.00 402.00 133.00 L 330.00 133.00 Z" fill="#3d3d63" fill-rule="nonzero" node-id="191" stroke="none" target-height="316" target-width="120" target-x="306" target-y="121"/><path d="M 346.00 146.00 L 386.00 146.00 L 389.10 146.29 L 391.95 147.06 L 394.58 148.32 L 396.97 150.01 L 398.99 152.03 L 400.68 154.42 L 401.94 157.05 L 402.71 159.90 L 403.00 163.00 L 403.00 316.00 L 402.71 319.10 L 401.94 321.95 L 400.68 324.58 L 398.99 326.97 L 396.97 328.99 L 394.58 330.68 L 391.95 331.94 L 389.10 332.71 L 386.00 333.00 L 346.00 333.00 L 342.90 332.71 L 340.05 331.94 L 337.42 330.68 L 335.03 328.99 L 333.01 326.97 L 331.32 324.58 L 330.06 321.95 L 329.29 319.10 L 329.00 316.00 L 329.00 163.00 L 329.29 159.90 L 330.06 157.05 L 331.32 154.42 L 333.01 152.03 L 335.03 150.01 L 337.42 148.32 L 340.05 147.06 L 342.90 146.29 L 346.00 146.00 Z" fill="#f4f1ec" fill-rule="nonzero" group-id="4" node-id="194" stroke="none" target-height="187" target-width="74" target-x="329" target-y="146"/><path d="M 386.00 333.00 L 346.00 333.00 L 342.90 332.71 L 340.06 331.93 L 337.43 330.68 L 335.04 328.98 L 333.02 326.96 L 331.32 324.57 L 330.07 321.94 L 329.29 319.10 L 329.00 316.00 L 329.00 163.00 L 329.29 159.90 L 330.07 157.06 L 331.32 154.43 L 333.02 152.04 L 335.04 150.02 L 337.43 148.32 L 340.06 147.07 L 342.90 146.29 L 346.00 146.00 L 386.00 146.00 L 389.10 146.29 L 391.94 147.07 L 394.57 148.32 L 396.96 150.02 L 398.98 152.04 L 400.68 154.43 L 401.93 157.06 L 402.71 159.90 L 403.00 163.00 L 403.00 316.00 L 402.71 319.10 L 401.93 321.94 L 400.68 324.57 L 398.98 326.96 L 396.96 328.98 L 394.57 330.68 L 391.94 331.93 L 389.10 332.71 L 386.00 333.00 Z M 346.00 158.00 L 344.64 158.19 L 343.48 158.68 L 342.47 159.47 L 341.68 160.48 L 341.19 161.64 L 341.00 163.00 L 341.00 316.00 L 341.19 317.36 L 341.68 318.52 L 342.47 319.53 L 343.48 320.32 L 344.64 320.81 L 346.00 321.00 L 386.00 321.00 L 387.36 320.81 L 388.52 320.32 L 389.53 319.53 L 390.32 318.52 L 390.81 317.36 L 391.00 316.00 L 391.00 163.00 L 390.81 161.64 L 390.32 160.48 L 389.53 159.47 L 388.52 158.68 L 387.36 158.19 L 386.00 158.00 L 346.00 158.00 Z" fill="#3d3d63" fill-rule="nonzero" group-id="4" node-id="196" stroke="none" target-height="187" target-width="74" target-x="329" target-y="146"/><path d="M 380.50 185.50 L 351.50 185.50 C 348.74 185.50 346.50 183.26 346.50 180.50 C 346.50 177.74 348.74 175.50 351.50 175.50 L 380.50 175.50 C 383.26 175.50 385.50 177.74 385.50 180.50 C 385.50 183.26 383.26 185.50 380.50 185.50 Z" fill="#3d3d63" fill-rule="nonzero" node-id="199" stroke="none" target-height="10" target-width="39" target-x="346.5" target-y="175.5"/><path d="M 380.50 201.50 L 351.50 201.50 C 348.74 201.50 346.50 199.26 346.50 196.50 C 346.50 193.74 348.74 191.50 351.50 191.50 L 380.50 191.50 C 383.26 191.50 385.50 193.74 385.50 196.50 C 385.50 199.26 383.26 201.50 380.50 201.50 Z" fill="#3d3d63" fill-rule="nonzero" node-id="201" stroke="none" target-height="10" target-width="39" target-x="346.5" target-y="191.5"/><path d="M 380.50 217.50 L 351.50 217.50 C 348.74 217.50 346.50 215.26 346.50 212.50 C 346.50 209.74 348.74 207.50 351.50 207.50 L 380.50 207.50 C 383.26 207.50 385.50 209.74 385.50 212.50 C 385.50 215.26 383.26 217.50 380.50 217.50 Z" fill="#3d3d63" fill-rule="nonzero" node-id="203" stroke="none" target-height="10" target-width="39" target-x="346.5" target-y="207.5"/><path d="M 380.50 293.50 L 351.50 293.50 C 348.74 293.50 346.50 291.26 346.50 288.50 C 346.50 285.74 348.74 283.50 351.50 283.50 L 380.50 283.50 C 383.26 283.50 385.50 285.74 385.50 288.50 C 385.50 291.26 383.26 293.50 380.50 293.50 Z" fill="#3d3d63" fill-rule="nonzero" node-id="205" stroke="none" target-height="10" target-width="39" target-x="346.5" target-y="283.5"/><path d="M 544.96 127.44 L 613.13 117.86 C 625.68 116.10 637.28 124.84 639.05 137.39 L 677.90 413.88 L 677.90 413.88 L 564.28 429.84 L 564.28 429.84 L 525.42 153.36 C 523.66 140.81 532.40 129.21 544.96 127.44 Z" fill="#fde174" fill-rule="nonzero" node-id="207" stroke="none" target-height="313.748" target-width="154.24506" target-x="523.66" target-y="116.096"/><path d="M 572.78 435.45 C 566.84 435.45 561.73 431.01 560.90 425.12 L 521.93 147.84 C 521.04 141.49 522.67 135.18 526.53 130.06 C 530.39 124.94 536.01 121.63 542.36 120.73 L 613.66 110.71 C 614.77 110.56 615.90 110.48 617.02 110.48 C 628.90 110.48 639.11 119.36 640.77 131.14 L 679.73 408.42 C 680.18 411.59 679.36 414.75 677.43 417.31 C 675.50 419.87 672.70 421.52 669.52 421.97 L 574.46 435.33 C 573.90 435.41 573.34 435.45 572.78 435.45 Z M 617.02 122.48 C 616.46 122.48 615.89 122.52 615.33 122.60 L 544.03 132.62 C 540.86 133.06 538.05 134.72 536.12 137.28 C 534.19 139.84 533.37 143.00 533.82 146.17 L 572.79 423.45 L 667.85 410.09 L 628.88 132.81 C 628.06 126.92 622.96 122.48 617.02 122.48 Z" fill="#3d3d63" fill-rule="nonzero" node-id="209" stroke="none" target-height="324.969" target-width="159.14001" target-x="521.041" target-y="110.478"/><path d="M 561.68 143.27 L 601.30 137.70 L 604.41 137.55 L 607.33 137.92 L 610.12 138.80 L 612.71 140.14 L 615.00 141.87 L 617.00 143.99 L 618.61 146.43 L 619.78 149.13 L 620.50 152.17 L 641.79 303.68 L 641.93 306.79 L 641.56 309.71 L 640.68 312.50 L 639.34 315.10 L 637.62 317.38 L 635.49 319.39 L 633.06 321.00 L 630.35 322.16 L 627.32 322.88 L 587.71 328.45 L 584.60 328.59 L 581.67 328.22 L 578.89 327.34 L 576.29 326.00 L 574.01 324.28 L 572.00 322.15 L 570.39 319.72 L 569.23 317.01 L 568.51 313.98 L 547.22 162.47 L 547.07 159.35 L 547.44 156.43 L 548.32 153.65 L 549.66 151.05 L 551.38 148.76 L 553.51 146.76 L 555.94 145.15 L 558.65 143.98 L 561.68 143.27 Z" fill="#f4f1ec" fill-rule="nonzero" group-id="5" node-id="212" stroke="none" target-height="191.03853" target-width="94.86481" target-x="547.0702" target-y="137.55238"/><path d="M 585.33 328.61 L 582.54 328.37 L 579.94 327.73 L 577.49 326.67 L 575.23 325.25 L 573.25 323.52 L 571.52 321.48 L 570.14 319.20 L 569.13 316.71 L 568.51 313.98 L 547.22 162.47 L 547.07 159.36 L 547.44 156.44 L 548.32 153.65 L 549.67 151.05 L 551.39 148.77 L 553.52 146.76 L 555.95 145.15 L 558.66 143.98 L 561.68 143.27 L 601.30 137.70 L 603.68 137.53 L 606.46 137.77 L 609.07 138.42 L 611.52 139.47 L 613.78 140.90 L 615.76 142.62 L 617.48 144.66 L 618.87 146.95 L 619.87 149.44 L 620.50 152.17 L 641.79 303.68 L 641.96 305.94 L 641.83 308.14 L 641.42 310.30 L 640.73 312.39 L 639.77 314.38 L 638.53 316.27 L 637.05 317.99 L 635.41 319.46 L 633.59 320.70 L 631.62 321.69 L 629.54 322.42 L 627.32 322.88 L 587.71 328.45 L 585.33 328.61 Z M 603.68 149.53 L 602.97 149.58 L 563.35 155.15 L 562.04 155.53 L 560.95 156.17 L 560.06 157.09 L 559.42 158.21 L 559.10 159.43 L 559.10 160.80 L 580.39 312.31 L 580.77 313.60 L 581.41 314.68 L 582.34 315.59 L 583.46 316.23 L 584.68 316.56 L 586.04 316.56 L 625.65 311.00 L 626.93 310.64 L 628.02 310.00 L 628.95 309.05 L 629.60 307.90 L 629.92 306.68 L 629.91 305.35 L 608.61 153.84 L 608.04 152.12 L 606.94 150.76 L 605.45 149.86 L 603.68 149.53 Z" fill="#3d3d63" fill-rule="nonzero" group-id="5" node-id="214" stroke="none" target-height="191.0806" target-width="94.88507" target-x="547.0712" target-y="137.53128"/><path d="M 571.93 181.66 C 569.47 181.66 567.33 179.86 566.98 177.36 C 566.60 174.63 568.50 172.10 571.24 171.71 L 599.96 167.68 C 602.69 167.29 605.22 169.20 605.60 171.93 C 605.99 174.67 604.08 177.19 601.35 177.58 L 572.63 181.62 C 572.39 181.65 572.16 181.66 571.93 181.66 Z" fill="#3d3d63" fill-rule="nonzero" node-id="217" stroke="none" target-height="14.372986" target-width="39.390015" target-x="566.597" target-y="167.292"/><path d="M 574.15 197.51 C 571.70 197.51 569.56 195.70 569.21 193.20 C 568.82 190.47 570.73 187.94 573.46 187.56 L 602.18 183.52 C 604.92 183.14 607.45 185.04 607.83 187.78 C 608.21 190.51 606.31 193.04 603.57 193.42 L 574.85 197.46 C 574.62 197.49 574.38 197.51 574.15 197.51 Z" fill="#3d3d63" fill-rule="nonzero" node-id="219" stroke="none" target-height="14.371002" target-width="39.390015" target-x="568.823" target-y="183.137"/><path d="M 576.38 213.35 C 573.93 213.35 571.78 211.55 571.43 209.05 C 571.05 206.31 572.96 203.78 575.69 203.40 L 604.41 199.37 C 607.15 198.98 609.67 200.89 610.05 203.62 C 610.44 206.35 608.53 208.88 605.80 209.27 L 577.08 213.30 C 576.85 213.34 576.61 213.35 576.38 213.35 Z" fill="#3d3d63" fill-rule="nonzero" node-id="221" stroke="none" target-height="14.373001" target-width="39.390015" target-x="571.05" target-y="198.98"/><path d="M 586.96 288.61 C 584.50 288.61 582.36 286.81 582.01 284.31 C 581.63 281.57 583.53 279.05 586.27 278.66 L 614.99 274.63 C 617.73 274.24 620.25 276.15 620.63 278.88 C 621.02 281.62 619.11 284.14 616.38 284.53 L 587.66 288.56 C 587.42 288.60 587.19 288.61 586.96 288.61 Z" fill="#3d3d63" fill-rule="nonzero" node-id="223" stroke="none" target-height="14.370026" target-width="39.390015" target-x="581.627" target-y="274.244"/><path d="M 439.90 129.34 L 508.10 129.34 C 520.66 129.34 530.83 139.51 530.83 152.07 L 530.83 428.66 L 530.83 428.66 L 417.17 428.66 L 417.17 428.66 L 417.17 152.07 C 417.17 139.51 427.34 129.34 439.90 129.34 Z" fill="#f6716f" fill-rule="nonzero" node-id="225" stroke="none" target-height="299.326" target-width="113.66702" target-x="417.166" target-y="129.337"/><path d="M 522.00 437.00 L 426.00 437.00 C 419.38 437.00 414.00 431.62 414.00 425.00 L 414.00 145.00 C 414.00 131.77 424.77 121.00 438.00 121.00 L 510.00 121.00 C 523.23 121.00 534.00 131.77 534.00 145.00 L 534.00 425.00 C 534.00 431.62 528.62 437.00 522.00 437.00 Z M 438.00 133.00 C 431.38 133.00 426.00 138.38 426.00 145.00 L 426.00 425.00 L 522.01 425.00 L 522.00 145.00 C 522.00 138.38 516.62 133.00 510.00 133.00 L 438.00 133.00 Z" fill="#3d3d63" fill-rule="nonzero" node-id="227" stroke="none" target-height="316" target-width="120" target-x="414" target-y="121"/><path d="M 454.00 146.00 L 494.00 146.00 L 497.10 146.29 L 499.95 147.06 L 502.58 148.32 L 504.97 150.01 L 506.99 152.03 L 508.68 154.42 L 509.94 157.05 L 510.71 159.90 L 511.00 163.00 L 511.00 316.00 L 510.71 319.10 L 509.94 321.95 L 508.68 324.58 L 506.99 326.97 L 504.97 328.99 L 502.58 330.68 L 499.95 331.94 L 497.10 332.71 L 494.00 333.00 L 454.00 333.00 L 450.90 332.71 L 448.05 331.94 L 445.42 330.68 L 443.03 328.99 L 441.01 326.97 L 439.32 324.58 L 438.06 321.95 L 437.29 319.10 L 437.00 316.00 L 437.00 163.00 L 437.29 159.90 L 438.06 157.05 L 439.32 154.42 L 441.01 152.03 L 443.03 150.01 L 445.42 148.32 L 448.05 147.06 L 450.90 146.29 L 454.00 146.00 Z" fill="#f4f1ec" fill-rule="nonzero" group-id="6" node-id="230" stroke="none" target-height="187" target-width="74" target-x="437" target-y="146"/><path d="M 494.00 333.00 L 454.00 333.00 L 450.90 332.71 L 448.06 331.93 L 445.43 330.68 L 443.04 328.98 L 441.02 326.96 L 439.32 324.57 L 438.07 321.94 L 437.29 319.10 L 437.00 316.00 L 437.00 163.00 L 437.29 159.90 L 438.07 157.06 L 439.32 154.43 L 441.02 152.04 L 443.04 150.02 L 445.43 148.32 L 448.06 147.07 L 450.90 146.29 L 454.00 146.00 L 494.00 146.00 L 497.10 146.29 L 499.94 147.07 L 502.57 148.32 L 504.96 150.02 L 506.98 152.04 L 508.68 154.43 L 509.93 157.06 L 510.71 159.90 L 511.00 163.00 L 511.00 316.00 L 510.71 319.10 L 509.93 321.94 L 508.68 324.57 L 506.98 326.96 L 504.96 328.98 L 502.57 330.68 L 499.94 331.93 L 497.10 332.71 L 494.00 333.00 Z M 454.00 158.00 L 452.64 158.19 L 451.48 158.68 L 450.47 159.47 L 449.68 160.48 L 449.19 161.64 L 449.00 163.00 L 449.00 316.00 L 449.19 317.36 L 449.68 318.52 L 450.47 319.53 L 451.48 320.32 L 452.64 320.81 L 454.00 321.00 L 494.00 321.00 L 495.36 320.81 L 496.52 320.32 L 497.53 319.53 L 498.32 318.52 L 498.81 317.36 L 499.00 316.00 L 499.00 163.00 L 498.81 161.64 L 498.32 160.48 L 497.53 159.47 L 496.52 158.68 L 495.36 158.19 L 494.00 158.00 L 454.00 158.00 Z" fill="#3d3d63" fill-rule="nonzero" group-id="6" node-id="232" stroke="none" target-height="187" target-width="74" target-x="437" target-y="146"/><path d="M 488.50 185.50 L 459.50 185.50 C 456.74 185.50 454.50 183.26 454.50 180.50 C 454.50 177.74 456.74 175.50 459.50 175.50 L 488.50 175.50 C 491.26 175.50 493.50 177.74 493.50 180.50 C 493.50 183.26 491.26 185.50 488.50 185.50 Z" fill="#3d3d63" fill-rule="nonzero" node-id="235" stroke="none" target-height="10" target-width="39" target-x="454.5" target-y="175.5"/><path d="M 488.50 201.50 L 459.50 201.50 C 456.74 201.50 454.50 199.26 454.50 196.50 C 454.50 193.74 456.74 191.50 459.50 191.50 L 488.50 191.50 C 491.26 191.50 493.50 193.74 493.50 196.50 C 493.50 199.26 491.26 201.50 488.50 201.50 Z" fill="#3d3d63" fill-rule="nonzero" node-id="237" stroke="none" target-height="10" target-width="39" target-x="454.5" target-y="191.5"/><path d="M 488.50 217.50 L 459.50 217.50 C 456.74 217.50 454.50 215.26 454.50 212.50 C 454.50 209.74 456.74 207.50 459.50 207.50 L 488.50 207.50 C 491.26 207.50 493.50 209.74 493.50 212.50 C 493.50 215.26 491.26 217.50 488.50 217.50 Z" fill="#3d3d63" fill-rule="nonzero" node-id="239" stroke="none" target-height="10" target-width="39" target-x="454.5" target-y="207.5"/><path d="M 488.50 293.50 L 459.50 293.50 C 456.74 293.50 454.50 291.26 454.50 288.50 C 454.50 285.74 456.74 283.50 459.50 283.50 L 488.50 283.50 C 491.26 283.50 493.50 285.74 493.50 288.50 C 493.50 291.26 491.26 293.50 488.50 293.50 Z" fill="#3d3d63" fill-rule="nonzero" node-id="241" stroke="none" target-height="10" target-width="39" target-x="454.5" target-y="283.5"/><path d="M 318.00 393.00 L 414.00 393.00 L 414.00 425.00 L 318.00 425.00 Z" fill="#f2d053" fill-rule="nonzero" id="矩形_71" node-id="72" stroke="none" target-height="32" target-width="96" target-x="318" target-y="393"/><path d="M 426.00 395.00 L 522.00 395.00 L 522.00 427.00 L 426.00 427.00 Z" fill="#ec5232" fill-rule="nonzero" id="矩形_72" node-id="73" stroke="none" target-height="32" target-width="96" target-x="426" target-y="395"/><path d="M 667.73 410.17 L 572.66 423.53 L 568.21 391.84 L 663.28 378.48 Z" fill="#f2d053" fill-rule="nonzero" group-id="7" id="矩形_73" node-id="74" stroke="none" target-height="45.052826" target-width="99.52319" target-x="568.2063" target-y="378.47897"/><path d="M 375.50 408.00 L 375.50 400.00 L 417.50 400.00 L 417.50 408.00 Z" fill="#ffb038" fill-rule="nonzero" group-id="8" node-id="250" stroke="none" target-height="8" target-width="42" target-x="375.5" target-y="400"/><path d="M 366.50 416.00 L 366.50 408.00 L 392.50 408.00 L 392.50 416.00 Z" fill="#ffb038" fill-rule="nonzero" group-id="8" node-id="252" stroke="none" target-height="8" target-width="26" target-x="366.5" target-y="408"/><path d="M 482.50 410.00 L 482.50 402.00 L 524.50 402.00 L 524.50 410.00 Z" fill="#ff6848" fill-rule="nonzero" group-id="9" node-id="256" stroke="none" target-height="8" target-width="42" target-x="482.5" target-y="402"/><path d="M 473.50 418.00 L 473.50 410.00 L 499.50 410.00 L 499.50 418.00 Z" fill="#ff6848" fill-rule="nonzero" group-id="9" node-id="258" stroke="none" target-height="8" target-width="26" target-x="473.5" target-y="410"/><path d="M 334.50 408.00 L 334.50 400.00 L 376.50 400.00 L 376.50 408.00 Z" fill="#ffb038" fill-rule="nonzero" group-id="10" node-id="262" stroke="none" target-height="8" target-width="42" target-x="334.5" target-y="400"/><path d="M 325.50 416.00 L 325.50 408.00 L 351.50 408.00 L 351.50 416.00 Z" fill="#ffb038" fill-rule="nonzero" group-id="10" node-id="264" stroke="none" target-height="8" target-width="26" target-x="325.5" target-y="408"/><path d="M 624.93 393.91 L 665.30 382.33 L 667.51 390.02 L 627.13 401.60 Z" fill="#ffb038" fill-rule="nonzero" group-id="11,23,25" node-id="271" stroke="none" target-height="19.268372" target-width="42.57953" target-x="624.92926" target-y="382.33"/><path d="M 616.90 401.99 L 641.89 394.82 L 644.10 402.51 L 619.10 409.68 Z" fill="#ffb038" fill-rule="nonzero" group-id="11,23,26" node-id="276" stroke="none" target-height="14.857697" target-width="27.198853" target-x="616.8977" target-y="394.8227"/><path d="M 584.33 399.61 L 624.70 388.04 L 626.91 395.73 L 586.53 407.30 Z" fill="#ffb038" fill-rule="nonzero" group-id="11,24,27" node-id="283" stroke="none" target-height="19.268097" target-width="42.578552" target-x="584.3284" target-y="388.03583"/><path d="M 576.30 407.70 L 601.29 400.53 L 603.50 408.22 L 578.50 415.39 Z" fill="#ffb038" fill-rule="nonzero" group-id="11,24,28" node-id="288" stroke="none" target-height="14.857697" target-width="27.198853" target-x="576.2967" target-y="400.5293"/><path d="M 441.50 410.00 L 441.50 402.00 L 483.50 402.00 L 483.50 410.00 Z" fill="#ff6848" fill-rule="nonzero" group-id="12" node-id="294" stroke="none" target-height="8" target-width="42" target-x="441.5" target-y="402"/><path d="M 432.50 418.00 L 432.50 410.00 L 458.50 410.00 L 458.50 418.00 Z" fill="#ff6848" fill-rule="nonzero" group-id="12" node-id="296" stroke="none" target-height="8" target-width="26" target-x="432.5" target-y="410"/><path d="M 397.00 375.00 L 396.70 379.26 L 395.89 383.27 L 394.56 387.07 L 392.75 390.66 L 390.54 393.94 L 387.92 396.92 L 384.94 399.54 L 381.66 401.75 L 378.07 403.56 L 374.27 404.89 L 370.26 405.70 L 366.00 406.00 L 361.74 405.70 L 357.73 404.89 L 353.93 403.56 L 350.34 401.75 L 347.06 399.54 L 344.08 396.92 L 341.46 393.94 L 339.25 390.66 L 337.44 387.07 L 336.11 383.27 L 335.30 379.26 L 335.00 375.00 L 335.30 370.74 L 336.11 366.73 L 337.44 362.93 L 339.25 359.34 L 341.46 356.06 L 344.08 353.08 L 347.06 350.46 L 350.34 348.25 L 353.93 346.44 L 357.73 345.11 L 361.74 344.30 L 366.00 344.00 L 370.26 344.30 L 374.27 345.11 L 378.07 346.44 L 381.66 348.25 L 384.94 350.46 L 387.92 353.08 L 390.54 356.06 L 392.75 359.34 L 394.56 362.93 L 395.89 366.73 L 396.70 370.74 L 397.00 375.00 Z" fill="#b6bdc6" fill-rule="nonzero" group-id="13" node-id="300" stroke="none" target-height="62" target-width="62" target-x="335" target-y="344"/><path d="M 366.00 406.00 L 361.75 405.70 L 357.74 404.89 L 353.95 403.56 L 350.35 401.75 L 347.07 399.54 L 344.09 396.91 L 341.46 393.93 L 339.25 390.65 L 337.44 387.06 L 336.11 383.26 L 335.30 379.25 L 335.00 375.00 L 335.30 370.75 L 336.11 366.74 L 337.44 362.94 L 339.25 359.35 L 341.46 356.07 L 344.09 353.09 L 347.07 350.46 L 350.35 348.25 L 353.95 346.44 L 357.74 345.11 L 361.75 344.30 L 366.00 344.00 L 370.25 344.30 L 374.26 345.11 L 378.05 346.44 L 381.65 348.25 L 384.93 350.46 L 387.91 353.09 L 390.54 356.07 L 392.75 359.35 L 394.56 362.94 L 395.89 366.74 L 396.70 370.75 L 397.00 375.00 L 396.70 379.25 L 395.89 383.26 L 394.56 387.06 L 392.75 390.65 L 390.54 393.93 L 387.91 396.91 L 384.93 399.54 L 381.65 401.75 L 378.05 403.56 L 374.26 404.89 L 370.25 405.70 L 366.00 406.00 Z M 366.00 356.00 L 362.54 356.32 L 359.36 357.19 L 356.42 358.60 L 353.75 360.49 L 351.49 362.75 L 349.60 365.42 L 348.19 368.36 L 347.32 371.54 L 347.00 375.00 L 347.32 378.46 L 348.19 381.64 L 349.60 384.58 L 351.49 387.25 L 353.75 389.51 L 356.42 391.40 L 359.36 392.81 L 362.54 393.68 L 366.00 394.00 L 369.46 393.68 L 372.64 392.81 L 375.58 391.40 L 378.25 389.51 L 380.51 387.25 L 382.40 384.58 L 383.81 381.64 L 384.68 378.46 L 385.00 375.00 L 384.68 371.54 L 383.81 368.36 L 382.40 365.42 L 380.51 362.75 L 378.25 360.49 L 375.58 358.60 L 372.64 357.19 L 369.46 356.32 L 366.00 356.00 Z" fill="#3d3d63" fill-rule="nonzero" group-id="13" node-id="302" stroke="none" target-height="62" target-width="62" target-x="335" target-y="344"/><path d="M 505.00 375.00 L 504.70 379.26 L 503.89 383.27 L 502.56 387.07 L 500.75 390.66 L 498.54 393.94 L 495.92 396.92 L 492.94 399.54 L 489.66 401.75 L 486.07 403.56 L 482.27 404.89 L 478.26 405.70 L 474.00 406.00 L 469.74 405.70 L 465.73 404.89 L 461.93 403.56 L 458.34 401.75 L 455.06 399.54 L 452.08 396.92 L 449.46 393.94 L 447.25 390.66 L 445.44 387.07 L 444.11 383.27 L 443.30 379.26 L 443.00 375.00 L 443.30 370.74 L 444.11 366.73 L 445.44 362.93 L 447.25 359.34 L 449.46 356.06 L 452.08 353.08 L 455.06 350.46 L 458.34 348.25 L 461.93 346.44 L 465.73 345.11 L 469.74 344.30 L 474.00 344.00 L 478.26 344.30 L 482.27 345.11 L 486.07 346.44 L 489.66 348.25 L 492.94 350.46 L 495.92 353.08 L 498.54 356.06 L 500.75 359.34 L 502.56 362.93 L 503.89 366.73 L 504.70 370.74 L 505.00 375.00 Z" fill="#b6bdc6" fill-rule="nonzero" group-id="14" node-id="306" stroke="none" target-height="62" target-width="62" target-x="443" target-y="344"/><path d="M 474.00 406.00 L 469.75 405.70 L 465.74 404.89 L 461.95 403.56 L 458.35 401.75 L 455.07 399.54 L 452.09 396.91 L 449.46 393.93 L 447.25 390.65 L 445.44 387.06 L 444.11 383.26 L 443.30 379.25 L 443.00 375.00 L 443.30 370.75 L 444.11 366.74 L 445.44 362.94 L 447.25 359.35 L 449.46 356.07 L 452.09 353.09 L 455.07 350.46 L 458.35 348.25 L 461.95 346.44 L 465.74 345.11 L 469.75 344.30 L 474.00 344.00 L 478.25 344.30 L 482.26 345.11 L 486.06 346.44 L 489.65 348.25 L 492.93 350.46 L 495.91 353.09 L 498.54 356.07 L 500.75 359.35 L 502.56 362.94 L 503.89 366.74 L 504.70 370.75 L 505.00 375.00 L 504.70 379.25 L 503.89 383.26 L 502.56 387.06 L 500.75 390.65 L 498.54 393.93 L 495.91 396.91 L 492.93 399.54 L 489.65 401.75 L 486.06 403.56 L 482.26 404.89 L 478.25 405.70 L 474.00 406.00 Z M 474.00 356.00 L 470.54 356.32 L 467.36 357.19 L 464.42 358.60 L 461.75 360.49 L 459.49 362.75 L 457.60 365.42 L 456.19 368.36 L 455.32 371.54 L 455.00 375.00 L 455.32 378.46 L 456.19 381.64 L 457.60 384.58 L 459.49 387.25 L 461.75 389.51 L 464.42 391.40 L 467.36 392.81 L 470.54 393.68 L 474.00 394.00 L 477.46 393.68 L 480.64 392.81 L 483.58 391.40 L 486.25 389.51 L 488.51 387.25 L 490.40 384.58 L 491.81 381.64 L 492.68 378.46 L 493.00 375.00 L 492.68 371.54 L 491.81 368.36 L 490.40 365.42 L 488.51 362.75 L 486.25 360.49 L 483.58 358.60 L 480.64 357.19 L 477.46 356.32 L 474.00 356.00 Z" fill="#3d3d63" fill-rule="nonzero" group-id="14" node-id="308" stroke="none" target-height="62" target-width="62" target-x="443" target-y="344"/><path d="M 644.06 362.94 L 644.36 367.20 L 644.11 371.28 L 643.33 375.23 L 642.03 379.04 L 640.30 382.59 L 638.12 385.91 L 635.53 388.92 L 632.60 391.57 L 629.29 393.86 L 625.71 395.70 L 621.85 397.07 L 617.68 397.95 L 613.42 398.25 L 609.33 398.00 L 605.39 397.22 L 601.57 395.93 L 598.02 394.19 L 594.70 392.01 L 591.69 389.42 L 589.05 386.49 L 586.75 383.18 L 584.91 379.60 L 583.55 375.74 L 582.66 371.57 L 582.36 367.31 L 582.61 363.23 L 583.40 359.28 L 584.69 355.46 L 586.42 351.91 L 588.60 348.60 L 591.19 345.58 L 594.12 342.94 L 597.44 340.65 L 601.01 338.80 L 604.87 337.44 L 609.05 336.55 L 613.30 336.25 L 617.39 336.50 L 621.33 337.29 L 625.15 338.58 L 628.70 340.31 L 632.02 342.50 L 635.03 345.08 L 637.67 348.02 L 639.97 351.33 L 641.81 354.91 L 643.17 358.76 L 644.06 362.94 Z" fill="#b6bdc6" fill-rule="nonzero" group-id="15" node-id="312" stroke="none" target-height="61.99707" target-width="61.99707" target-x="582.3622" target-y="336.2544"/><path d="M 613.33 398.26 L 609.51 398.01 L 605.86 397.33 L 602.36 396.23 L 599.02 394.71 L 595.92 392.84 L 593.04 390.62 L 590.44 388.07 L 588.16 385.26 L 586.20 382.16 L 584.61 378.84 L 583.44 375.32 L 582.66 371.57 L 582.36 367.32 L 582.61 363.24 L 583.40 359.29 L 584.69 355.48 L 586.43 351.92 L 588.61 348.61 L 591.20 345.59 L 594.14 342.94 L 597.45 340.65 L 601.03 338.80 L 604.88 337.44 L 609.05 336.55 L 613.39 336.25 L 617.21 336.49 L 620.86 337.17 L 624.36 338.28 L 627.70 339.80 L 630.80 341.66 L 633.68 343.89 L 636.28 346.43 L 638.56 349.24 L 640.52 352.35 L 642.11 355.66 L 643.29 359.18 L 644.06 362.94 L 644.36 367.19 L 644.11 371.27 L 643.32 375.22 L 642.03 379.03 L 640.29 382.58 L 638.11 385.90 L 635.52 388.92 L 632.58 391.56 L 629.27 393.86 L 625.70 395.70 L 621.84 397.07 L 617.68 397.95 L 613.33 398.26 Z M 613.39 348.25 L 610.72 348.44 L 607.33 349.24 L 604.31 350.54 L 601.59 352.34 L 599.21 354.59 L 597.28 357.14 L 595.78 360.05 L 594.80 363.16 L 594.38 366.42 L 594.55 369.90 L 595.24 372.95 L 596.36 375.73 L 597.91 378.28 L 599.84 380.57 L 602.05 382.49 L 604.57 384.09 L 607.31 385.27 L 610.22 385.99 L 613.33 386.26 L 616.00 386.07 L 618.48 385.55 L 620.81 384.74 L 623.01 383.63 L 625.04 382.25 L 626.88 380.61 L 628.54 378.69 L 629.92 376.57 L 631.00 374.35 L 631.77 372.01 L 632.22 369.60 L 632.36 367.13 L 632.18 364.61 L 631.48 361.56 L 630.36 358.77 L 628.81 356.22 L 626.89 353.94 L 624.67 352.01 L 622.15 350.42 L 619.41 349.24 L 616.50 348.51 L 613.39 348.25 Z" fill="#3d3d63" fill-rule="nonzero" group-id="15" node-id="314" stroke="none" target-height="62.006348" target-width="61.993713" target-x="582.3643" target-y="336.2497"/></svg>