<svg height="540" node-id="1" sillyvg="true" template-height="540" template-width="960" version="1.1" viewBox="0 0 960 540" width="960" xmlns="http://www.w3.org/2000/svg" xmlns:xlink="http://www.w3.org/1999/xlink"><defs node-id="69"></defs><path d="M 0.00 0.00 L 960.00 0.00 L 960.00 540.00 L 0.00 540.00 Z" fill="none" node-id="73" stroke="none" target-height="540" target-width="960" target-x="0" target-y="0"/><g node-id="196"><path d="M 0.00 0.00 L 960.00 0.00 L 960.00 540.00 L 0.00 540.00 Z" fill="#ffffff" fill-rule="nonzero" group-id="1" node-id="76" stroke="none" target-height="540" target-width="960" target-x="0" target-y="0"/><path d="M 688.48 385.33 L 726.66 423.52 C 739.55 436.41 739.55 457.30 726.66 470.19 L 726.66 470.19 C 713.78 483.07 692.88 483.07 680.00 470.19 L 641.81 432.00 C 628.92 419.12 628.92 398.22 641.81 385.33 L 641.81 385.33 C 654.70 372.45 675.60 372.45 688.48 385.33 Z" fill="#92d9f5" fill-rule="nonzero" group-id="1" id="矩形_13" node-id="5" stroke="none" target-height="110.62802" target-width="110.62897" target-x="628.924" target-y="372.447"/><path d="M 221.63 91.28 L 324.87 194.52 C 335.02 204.67 335.02 221.14 324.87 231.29 L 324.87 231.29 C 314.72 241.44 298.25 241.44 288.10 231.29 L 184.86 128.05 C 174.71 117.90 174.71 101.44 184.86 91.28 L 184.86 91.28 C 195.02 81.13 211.48 81.13 221.63 91.28 Z" fill="#92d9f5" fill-rule="nonzero" group-id="1" id="矩形_15" node-id="6" stroke="none" target-height="160.314" target-width="160.31499" target-x="174.709" target-y="81.13"/><path d="M 309.63 58.28 L 412.87 161.52 C 423.02 171.67 423.02 188.14 412.87 198.29 L 412.87 198.29 C 402.72 208.44 386.25 208.44 376.10 198.29 L 272.86 95.05 C 262.71 84.90 262.71 68.44 272.86 58.28 L 272.86 58.28 C 283.02 48.13 299.48 48.13 309.63 58.28 Z" fill="#92d9f5" fill-rule="nonzero" group-id="1" id="矩形_16" node-id="7" stroke="none" target-height="160.314" target-width="160.31497" target-x="262.709" target-y="48.13"/><path d="M 689.84 291.88 L 747.12 349.16 C 754.73 356.77 754.73 369.12 747.12 376.73 L 747.12 376.73 C 739.50 384.35 727.16 384.35 719.54 376.73 L 662.27 319.46 C 654.65 311.84 654.65 299.50 662.27 291.88 L 662.27 291.88 C 669.88 284.27 682.23 284.27 689.84 291.88 Z" fill="#92d9f5" fill-rule="nonzero" group-id="1" id="矩形_14" node-id="8" stroke="none" target-height="100.082" target-width="100.08203" target-x="654.652" target-y="284.266"/><path d="M 722.00 270.00 C 722.00 403.65 613.65 512.00 480.00 512.00 C 346.35 512.00 238.00 403.65 238.00 270.00 C 238.00 136.35 346.35 28.00 480.00 28.00 C 613.65 28.00 722.00 136.35 722.00 270.00 Z" fill="#92d9f5" fill-rule="nonzero" group-id="1" id="椭圆_1" node-id="9" stroke="none" target-height="484" target-width="484" target-x="238" target-y="28"/><g node-id="197"><path d="M 415.00 344.00 L 545.00 344.00 L 545.00 437.00 L 415.00 437.00 Z" fill="#b6bdc6" fill-rule="nonzero" group-id="1,2" node-id="84" stroke="none" target-height="93" target-width="130" target-x="415" target-y="344"/><path d="M 545.00 437.00 L 415.00 437.00 L 415.00 344.00 L 545.00 344.00 L 545.00 437.00 Z M 435.00 417.00 L 525.00 417.00 L 525.00 364.00 L 435.00 364.00 L 435.00 417.00 Z" fill="#3d3d63" fill-rule="nonzero" group-id="1,2" node-id="86" stroke="none" target-height="93" target-width="130" target-x="415" target-y="344"/></g><g node-id="198"><path d="M 336.00 100.00 L 624.00 100.00 L 628.15 100.22 L 632.12 100.82 L 635.92 101.80 L 639.57 103.14 L 643.09 104.85 L 646.38 106.84 L 649.44 109.13 L 652.28 111.72 L 654.88 114.57 L 657.16 117.62 L 659.15 120.91 L 660.86 124.43 L 662.20 128.08 L 663.18 131.88 L 663.78 135.85 L 664.00 140.00 L 664.00 336.00 L 663.78 340.15 L 663.18 344.12 L 662.20 347.92 L 660.86 351.57 L 659.15 355.09 L 657.16 358.38 L 654.88 361.44 L 652.28 364.28 L 649.44 366.88 L 646.38 369.16 L 643.09 371.15 L 639.57 372.86 L 635.92 374.20 L 632.12 375.18 L 628.15 375.78 L 624.00 376.00 L 336.00 376.00 L 331.85 375.78 L 327.88 375.18 L 324.08 374.20 L 320.43 372.86 L 316.91 371.15 L 313.62 369.16 L 310.57 366.88 L 307.72 364.28 L 305.13 361.44 L 302.84 358.38 L 300.85 355.09 L 299.14 351.57 L 297.80 347.92 L 296.82 344.12 L 296.22 340.15 L 296.00 336.00 L 296.00 140.00 L 296.22 135.85 L 296.82 131.88 L 297.80 128.08 L 299.14 124.43 L 300.85 120.91 L 302.84 117.62 L 305.13 114.57 L 307.72 111.72 L 310.57 109.13 L 313.62 106.84 L 316.91 104.85 L 320.43 103.14 L 324.08 101.80 L 327.88 100.82 L 331.85 100.22 L 336.00 100.00 Z" fill="#8becef" fill-rule="nonzero" group-id="1,3" node-id="90" stroke="none" target-height="276" target-width="368" target-x="296" target-y="100"/><path d="M 624.00 376.00 L 336.00 376.00 L 331.85 375.78 L 327.89 375.17 L 324.10 374.20 L 320.45 372.85 L 316.92 371.15 L 313.64 369.15 L 310.58 366.86 L 307.73 364.27 L 305.14 361.42 L 302.85 358.36 L 300.85 355.08 L 299.15 351.55 L 297.80 347.90 L 296.83 344.11 L 296.22 340.15 L 296.00 336.00 L 296.00 140.00 L 296.22 135.85 L 296.83 131.89 L 297.80 128.10 L 299.15 124.45 L 300.85 120.92 L 302.85 117.64 L 305.14 114.58 L 307.73 111.73 L 310.58 109.14 L 313.64 106.85 L 316.92 104.85 L 320.45 103.15 L 324.10 101.80 L 327.89 100.83 L 331.85 100.22 L 336.00 100.00 L 624.00 100.00 L 628.15 100.22 L 632.11 100.83 L 635.90 101.80 L 639.55 103.15 L 643.08 104.85 L 646.36 106.85 L 649.42 109.14 L 652.27 111.73 L 654.86 114.58 L 657.15 117.64 L 659.15 120.92 L 660.85 124.45 L 662.20 128.10 L 663.17 131.89 L 663.78 135.85 L 664.00 140.00 L 664.00 336.00 L 663.78 340.15 L 663.17 344.11 L 662.20 347.90 L 660.85 351.55 L 659.15 355.08 L 657.15 358.36 L 654.86 361.42 L 652.27 364.27 L 649.42 366.86 L 646.36 369.15 L 643.08 371.15 L 639.55 372.85 L 635.90 374.20 L 632.11 375.17 L 628.15 375.78 L 624.00 376.00 Z M 336.00 120.00 L 332.36 120.34 L 329.01 121.25 L 325.91 122.73 L 323.11 124.72 L 320.72 127.11 L 318.73 129.91 L 317.25 133.01 L 316.34 136.36 L 316.00 140.00 L 316.00 336.00 L 316.34 339.64 L 317.25 342.99 L 318.73 346.09 L 320.72 348.89 L 323.11 351.28 L 325.91 353.27 L 329.01 354.75 L 332.36 355.66 L 336.00 356.00 L 624.00 356.00 L 627.64 355.66 L 630.99 354.75 L 634.09 353.27 L 636.89 351.28 L 639.28 348.89 L 641.27 346.09 L 642.75 342.99 L 643.66 339.64 L 644.00 336.00 L 644.00 140.00 L 643.66 136.36 L 642.75 133.01 L 641.27 129.91 L 639.28 127.11 L 636.89 124.72 L 634.09 122.73 L 630.99 121.25 L 627.64 120.34 L 624.00 120.00 L 336.00 120.00 Z" fill="#3d3d63" fill-rule="nonzero" group-id="1,3" node-id="92" stroke="none" target-height="276" target-width="368" target-x="296" target-y="100"/></g><g node-id="199"><path d="M 321.50 286.25 L 643.58 286.08 L 654.83 293.42 L 664.00 336.00 L 663.78 340.15 L 663.18 344.12 L 662.20 347.92 L 660.86 351.57 L 659.15 355.09 L 657.16 358.38 L 654.88 361.44 L 652.28 364.28 L 649.44 366.88 L 646.38 369.16 L 643.09 371.15 L 639.57 372.86 L 635.92 374.20 L 632.12 375.18 L 628.15 375.78 L 624.00 376.00 L 336.00 376.00 L 331.85 375.78 L 327.88 375.18 L 324.08 374.20 L 320.43 372.86 L 316.91 371.15 L 313.62 369.16 L 310.57 366.88 L 307.72 364.28 L 305.13 361.44 L 302.84 358.38 L 300.85 355.09 L 299.14 351.57 L 297.80 347.92 L 296.82 344.12 L 296.22 340.15 L 296.00 336.00 L 296.00 304.62 L 313.12 301.25 L 321.50 286.25 Z" fill="#e5e5e5" fill-rule="nonzero" group-id="1,4" node-id="96" stroke="none" target-height="89.915985" target-width="368" target-x="296" target-y="286.084"/><path d="M 624.00 376.00 L 336.00 376.00 L 331.85 375.78 L 327.89 375.17 L 324.10 374.20 L 320.45 372.85 L 316.92 371.15 L 313.64 369.15 L 310.58 366.86 L 307.73 364.27 L 305.14 361.42 L 302.85 358.36 L 300.85 355.08 L 299.15 351.55 L 297.80 347.90 L 296.83 344.11 L 296.22 340.15 L 296.00 336.00 L 296.00 306.00 L 296.34 302.36 L 297.25 299.01 L 298.73 295.91 L 300.72 293.11 L 303.11 290.72 L 305.91 288.73 L 309.01 287.25 L 312.36 286.34 L 316.00 286.00 L 644.00 286.00 L 647.64 286.34 L 650.99 287.25 L 654.09 288.73 L 656.89 290.72 L 659.28 293.11 L 661.27 295.91 L 662.75 299.01 L 663.66 302.36 L 664.00 306.00 L 664.00 336.00 L 663.78 340.15 L 663.17 344.11 L 662.20 347.90 L 660.85 351.55 L 659.15 355.08 L 657.15 358.36 L 654.86 361.42 L 652.27 364.27 L 649.42 366.86 L 646.36 369.15 L 643.08 371.15 L 639.55 372.85 L 635.90 374.20 L 632.11 375.17 L 628.15 375.78 L 624.00 376.00 Z M 316.00 306.00 L 316.00 336.00 L 316.34 339.64 L 317.25 342.99 L 318.73 346.09 L 320.72 348.89 L 323.11 351.28 L 325.91 353.27 L 329.01 354.75 L 332.36 355.66 L 336.00 356.00 L 624.00 356.00 L 627.64 355.66 L 630.99 354.75 L 634.09 353.27 L 636.89 351.28 L 639.28 348.89 L 641.27 346.09 L 642.75 342.99 L 643.66 339.64 L 644.00 336.00 L 644.00 306.00 L 316.00 306.00 Z" fill="#3d3d63" fill-rule="nonzero" group-id="1,4" node-id="98" stroke="none" target-height="90" target-width="368" target-x="296" target-y="286"/></g><path d="M 435.00 376.00 L 525.00 376.00 L 525.00 396.00 L 435.00 396.00 Z" fill="#8f969e" fill-rule="nonzero" group-id="1" id="矩形_12" node-id="19" stroke="none" target-height="20" target-width="90" target-x="435" target-y="376"/><path d="M 595.00 437.00 L 365.00 437.00 C 359.48 437.00 355.00 432.52 355.00 427.00 C 355.00 421.48 359.48 417.00 365.00 417.00 L 595.00 417.00 C 600.52 417.00 605.00 421.48 605.00 427.00 C 605.00 432.52 600.52 437.00 595.00 437.00 Z" fill="#3d3d63" fill-rule="nonzero" group-id="1" node-id="102" stroke="none" target-height="20" target-width="250" target-x="355" target-y="417"/><path d="M 556.00 463.00 L 458.00 463.00 C 455.24 463.00 453.00 460.76 453.00 458.00 C 453.00 455.24 455.24 453.00 458.00 453.00 L 556.00 453.00 C 558.76 453.00 561.00 455.24 561.00 458.00 C 561.00 460.76 558.76 463.00 556.00 463.00 Z" fill="#3d3d63" fill-rule="nonzero" group-id="1" node-id="104" stroke="none" target-height="10" target-width="108" target-x="453" target-y="453"/><path d="M 589.00 487.00 L 480.00 487.00 C 477.24 487.00 475.00 484.76 475.00 482.00 C 475.00 479.24 477.24 477.00 480.00 477.00 L 589.00 477.00 C 591.76 477.00 594.00 479.24 594.00 482.00 C 594.00 484.76 591.76 487.00 589.00 487.00 Z" fill="#3d3d63" fill-rule="nonzero" group-id="1" node-id="106" stroke="none" target-height="10" target-width="119" target-x="475" target-y="477"/><path d="M 403.00 463.00 L 336.00 463.00 C 333.24 463.00 331.00 460.76 331.00 458.00 C 331.00 455.24 333.24 453.00 336.00 453.00 L 403.00 453.00 C 405.76 453.00 408.00 455.24 408.00 458.00 C 408.00 460.76 405.76 463.00 403.00 463.00 Z" fill="#3d3d63" fill-rule="nonzero" group-id="1" node-id="108" stroke="none" target-height="10" target-width="77" target-x="331" target-y="453"/><path d="M 701.00 487.00 L 645.00 487.00 C 642.24 487.00 640.00 484.76 640.00 482.00 C 640.00 479.24 642.24 477.00 645.00 477.00 L 701.00 477.00 C 703.76 477.00 706.00 479.24 706.00 482.00 C 706.00 484.76 703.76 487.00 701.00 487.00 Z" fill="#3d3d63" fill-rule="nonzero" group-id="1" node-id="110" stroke="none" target-height="10" target-width="66" target-x="640" target-y="477"/><path d="M 602.00 313.00 L 644.00 313.00 L 644.00 321.00 L 602.00 321.00 Z" fill="#8f969e" fill-rule="nonzero" group-id="1" node-id="112" stroke="none" target-height="8" target-width="42" target-x="602" target-y="313"/><path d="M 618.00 330.00 L 644.00 330.00 L 644.00 338.00 L 618.00 338.00 Z" fill="#8f969e" fill-rule="nonzero" group-id="1" node-id="114" stroke="none" target-height="8" target-width="26" target-x="618" target-y="330"/><path d="M 602.00 140.00 L 644.00 140.00 L 644.00 148.00 L 602.00 148.00 Z" fill="#67b3ff" fill-rule="nonzero" group-id="1,5" node-id="117" stroke="none" target-height="8" target-width="42" target-x="602" target-y="140"/><path d="M 618.00 157.00 L 644.00 157.00 L 644.00 165.00 L 618.00 165.00 Z" fill="#67b3ff" fill-rule="nonzero" group-id="1,5" node-id="119" stroke="none" target-height="8" target-width="26" target-x="618" target-y="157"/><path d="M 602.00 181.00 L 644.00 181.00 L 644.00 189.00 L 602.00 189.00 Z" fill="#67b3ff" fill-rule="nonzero" group-id="1,6" node-id="123" stroke="none" target-height="8" target-width="42" target-x="602" target-y="181"/><path d="M 618.00 198.00 L 644.00 198.00 L 644.00 206.00 L 618.00 206.00 Z" fill="#67b3ff" fill-rule="nonzero" group-id="1,6" node-id="125" stroke="none" target-height="8" target-width="26" target-x="618" target-y="198"/><path d="M 602.00 222.00 L 644.00 222.00 L 644.00 230.00 L 602.00 230.00 Z" fill="#67b3ff" fill-rule="nonzero" group-id="1,7" node-id="129" stroke="none" target-height="8" target-width="42" target-x="602" target-y="222"/><path d="M 618.00 239.00 L 644.00 239.00 L 644.00 247.00 L 618.00 247.00 Z" fill="#67b3ff" fill-rule="nonzero" group-id="1,7" node-id="131" stroke="none" target-height="8" target-width="26" target-x="618" target-y="239"/><path d="M 602.00 263.00 L 644.00 263.00 L 644.00 271.00 L 602.00 271.00 Z" fill="#67b3ff" fill-rule="nonzero" group-id="1" node-id="134" stroke="none" target-height="8" target-width="42" target-x="602" target-y="263"/><path d="M 439.00 487.00 L 283.00 487.00 C 280.24 487.00 278.00 484.76 278.00 482.00 C 278.00 479.24 280.24 477.00 283.00 477.00 L 439.00 477.00 C 441.76 477.00 444.00 479.24 444.00 482.00 C 444.00 484.76 441.76 487.00 439.00 487.00 Z" fill="#3d3d63" fill-rule="nonzero" group-id="1" node-id="136" stroke="none" target-height="10" target-width="166" target-x="278" target-y="477"/><path d="M 384.00 169.00 C 381.95 169.00 379.90 168.22 378.34 166.66 L 345.34 133.66 C 342.22 130.53 342.22 125.47 345.34 122.34 C 348.47 119.22 353.53 119.22 356.66 122.34 L 389.66 155.34 C 392.78 158.47 392.78 163.53 389.66 166.66 C 388.10 168.22 386.05 169.00 384.00 169.00 Z" fill="#d4feff" fill-rule="nonzero" group-id="1" node-id="138" stroke="none" target-height="49.78" target-width="50.56302" target-x="342.218" target-y="119.22"/><path d="M 389.00 219.00 C 386.95 219.00 384.90 218.22 383.34 216.66 L 318.34 151.66 C 315.22 148.53 315.22 143.47 318.34 140.34 C 321.47 137.22 326.53 137.22 329.66 140.34 L 394.66 205.34 C 397.78 208.47 397.78 213.53 394.66 216.66 C 393.10 218.22 391.05 219.00 389.00 219.00 Z" fill="#d4feff" fill-rule="nonzero" group-id="1" node-id="140" stroke="none" target-height="81.78" target-width="82.56302" target-x="315.218" target-y="137.22"/><path d="M 431.00 463.00 C 429.68 463.00 428.40 462.47 427.46 461.53 C 426.53 460.60 426.00 459.32 426.00 458.00 C 426.00 456.68 426.53 455.40 427.46 454.46 C 428.39 453.53 429.68 453.00 431.00 453.00 C 432.32 453.00 433.61 453.53 434.54 454.46 C 435.47 455.40 436.00 456.68 436.00 458.00 C 436.00 459.32 435.47 460.60 434.54 461.53 C 433.61 462.47 432.32 463.00 431.00 463.00 Z" fill="#3d3d63" fill-rule="nonzero" group-id="1" node-id="142" stroke="none" target-height="10" target-width="10" target-x="426" target-y="453"/><path d="M 621.00 487.00 C 619.69 487.00 618.40 486.47 617.46 485.53 C 616.53 484.60 616.00 483.32 616.00 482.00 C 616.00 480.68 616.53 479.40 617.46 478.46 C 618.39 477.53 619.68 477.00 621.00 477.00 C 622.32 477.00 623.61 477.53 624.54 478.46 C 625.47 479.40 626.00 480.69 626.00 482.00 C 626.00 483.32 625.47 484.60 624.54 485.53 C 623.60 486.47 622.31 487.00 621.00 487.00 Z" fill="#3d3d63" fill-rule="nonzero" group-id="1" node-id="144" stroke="none" target-height="10" target-width="10" target-x="616" target-y="477"/><path d="M 490.00 331.00 C 490.00 336.52 485.52 341.00 480.00 341.00 C 474.48 341.00 470.00 336.52 470.00 331.00 C 470.00 325.48 474.48 321.00 480.00 321.00 C 485.52 321.00 490.00 325.48 490.00 331.00 Z" fill="#3a3644" fill-rule="nonzero" group-id="1" id="椭圆_8" node-id="42" stroke="none" target-height="20" target-width="20" target-x="470" target-y="321"/><path d="M 802.00 312.21 C 801.49 312.21 800.98 312.02 800.59 311.63 L 779.37 290.41 C 778.59 289.63 778.59 288.37 779.37 287.59 L 800.59 266.37 C 801.37 265.59 802.63 265.59 803.41 266.37 L 824.63 287.59 C 825.41 288.37 825.41 289.63 824.63 290.41 L 803.41 311.63 C 803.02 312.02 802.51 312.21 802.00 312.21 Z M 783.62 289.00 L 802.00 307.38 L 820.38 289.00 L 802.00 270.62 L 783.62 289.00 Z" fill="#92d9f5" fill-rule="nonzero" group-id="1" node-id="147" stroke="none" target-height="46.621002" target-width="46.81604" target-x="778.592" target-y="265.592"/><path d="M 228.10 218.90 C 227.59 218.90 227.08 218.71 226.69 218.31 L 216.79 208.41 C 216.01 207.63 216.01 206.37 216.79 205.59 L 226.69 195.69 C 227.47 194.91 228.74 194.91 229.51 195.69 L 239.41 205.59 C 240.19 206.37 240.19 207.63 239.41 208.41 L 229.51 218.31 C 229.12 218.71 228.61 218.90 228.10 218.90 Z M 221.03 207.00 L 228.10 214.07 L 235.17 207.00 L 228.10 199.93 L 221.03 207.00 Z" fill="#92d9f5" fill-rule="nonzero" group-id="1" node-id="149" stroke="none" target-height="23.992996" target-width="24.188004" target-x="216.007" target-y="194.907"/><path d="M 691.00 328.90 C 690.47 328.90 689.96 328.69 689.59 328.31 L 679.69 318.41 C 678.91 317.63 678.91 316.37 679.69 315.59 L 689.59 305.69 C 690.37 304.91 691.63 304.91 692.41 305.69 L 702.31 315.59 C 703.09 316.37 703.09 317.63 702.31 318.41 L 692.41 328.31 C 692.04 328.69 691.53 328.90 691.00 328.90 Z M 683.93 317.00 L 691.00 324.07 L 698.07 317.00 L 691.00 309.93 L 683.93 317.00 Z" fill="#ffffff" fill-rule="nonzero" group-id="1" node-id="151" stroke="none" target-height="23.993988" target-width="24.187988" target-x="678.906" target-y="304.906"/><path d="M 544.00 67.90 C 543.49 67.90 542.98 67.70 542.59 67.31 L 532.69 57.41 C 531.91 56.63 531.91 55.37 532.69 54.59 L 542.59 44.69 C 543.37 43.91 544.63 43.91 545.41 44.69 L 555.31 54.59 C 556.09 55.37 556.09 56.63 555.31 57.41 L 545.41 67.31 C 545.02 67.70 544.51 67.90 544.00 67.90 Z M 536.93 56.00 L 544.00 63.07 L 551.07 56.00 L 544.00 48.93 L 536.93 56.00 Z" fill="#ffffff" fill-rule="nonzero" group-id="1" node-id="153" stroke="none" target-height="23.993" target-width="24.187988" target-x="531.906" target-y="43.907"/><path d="M 231.00 418.50 L 230.74 422.28 L 230.02 425.83 L 228.84 429.20 L 227.23 432.40 L 225.27 435.30 L 222.95 437.95 L 220.30 440.27 L 217.40 442.23 L 214.20 443.84 L 210.83 445.02 L 207.28 445.74 L 203.50 446.00 L 199.72 445.74 L 196.17 445.02 L 192.80 443.84 L 189.60 442.23 L 186.70 440.27 L 184.05 437.95 L 181.73 435.30 L 179.77 432.40 L 178.16 429.20 L 176.98 425.83 L 176.26 422.28 L 176.00 418.50 L 176.26 414.72 L 176.98 411.17 L 178.16 407.80 L 179.77 404.60 L 181.73 401.70 L 184.05 399.05 L 186.70 396.73 L 189.60 394.77 L 192.80 393.16 L 196.17 391.98 L 199.72 391.26 L 203.50 391.00 L 207.28 391.26 L 210.83 391.98 L 214.20 393.16 L 217.40 394.77 L 220.30 396.73 L 222.95 399.05 L 225.27 401.70 L 227.23 404.60 L 228.84 407.80 L 230.02 411.17 L 230.74 414.72 L 231.00 418.50 Z" fill="#ffffff" fill-rule="nonzero" group-id="1,8" node-id="156" stroke="none" target-height="55" target-width="55" target-x="176" target-y="391"/><path d="M 203.50 446.00 L 199.73 445.74 L 196.18 445.01 L 192.81 443.84 L 189.61 442.23 L 186.71 440.27 L 184.06 437.94 L 181.73 435.29 L 179.77 432.38 L 178.16 429.19 L 176.99 425.82 L 176.26 422.27 L 176.00 418.50 L 176.26 414.73 L 176.99 411.18 L 178.16 407.81 L 179.77 404.62 L 181.73 401.71 L 184.06 399.06 L 186.71 396.73 L 189.61 394.77 L 192.81 393.16 L 196.18 391.99 L 199.73 391.26 L 203.50 391.00 L 207.27 391.26 L 210.82 391.99 L 214.19 393.16 L 217.39 394.77 L 220.29 396.73 L 222.94 399.06 L 225.27 401.71 L 227.23 404.62 L 228.84 407.81 L 230.01 411.18 L 230.74 414.73 L 231.00 418.50 L 230.74 422.27 L 230.01 425.82 L 228.84 429.19 L 227.23 432.38 L 225.27 435.29 L 222.94 437.94 L 220.29 440.27 L 217.39 442.23 L 214.19 443.84 L 210.82 445.01 L 207.27 445.74 L 203.50 446.00 Z M 203.50 395.00 L 200.28 395.22 L 197.24 395.84 L 194.36 396.85 L 191.63 398.22 L 189.15 399.90 L 186.89 401.89 L 184.90 404.15 L 183.22 406.63 L 181.85 409.36 L 180.84 412.24 L 180.22 415.28 L 180.00 418.50 L 180.22 421.72 L 180.84 424.76 L 181.85 427.64 L 183.22 430.37 L 184.90 432.85 L 186.89 435.11 L 189.15 437.10 L 191.63 438.78 L 194.36 440.15 L 197.24 441.16 L 200.28 441.78 L 203.50 442.00 L 206.72 441.78 L 209.76 441.16 L 212.64 440.15 L 215.37 438.78 L 217.85 437.10 L 220.11 435.11 L 222.10 432.85 L 223.78 430.37 L 225.15 427.64 L 226.16 424.76 L 226.78 421.72 L 227.00 418.50 L 226.78 415.28 L 226.16 412.24 L 225.15 409.36 L 223.78 406.63 L 222.10 404.15 L 220.11 401.89 L 217.85 399.90 L 215.37 398.22 L 212.64 396.85 L 209.76 395.84 L 206.72 395.22 L 203.50 395.00 Z" fill="#92d9f5" fill-rule="nonzero" group-id="1,8" node-id="158" stroke="none" target-height="55" target-width="55" target-x="176" target-y="391"/><path d="M 221.00 113.50 L 220.77 115.96 L 220.16 118.22 L 219.16 120.31 L 217.82 122.21 L 216.21 123.82 L 214.31 125.16 L 212.22 126.16 L 209.96 126.77 L 207.50 127.00 L 205.04 126.77 L 202.78 126.16 L 200.69 125.16 L 198.79 123.82 L 197.18 122.21 L 195.84 120.31 L 194.84 118.22 L 194.23 115.96 L 194.00 113.50 L 194.23 111.04 L 194.84 108.78 L 195.84 106.69 L 197.18 104.79 L 198.79 103.18 L 200.69 101.84 L 202.78 100.84 L 205.04 100.23 L 207.50 100.00 L 209.96 100.23 L 212.22 100.84 L 214.31 101.84 L 216.21 103.18 L 217.82 104.79 L 219.16 106.69 L 220.16 108.78 L 220.77 111.04 L 221.00 113.50 Z" fill="none" group-id="1,9" node-id="162" stroke="none" target-height="27" target-width="27" target-x="194" target-y="100"/><path d="M 207.50 127.00 L 205.04 126.77 L 202.78 126.15 L 200.69 125.15 L 198.80 123.81 L 197.19 122.20 L 195.85 120.31 L 194.85 118.22 L 194.23 115.96 L 194.00 113.50 L 194.23 111.04 L 194.85 108.78 L 195.85 106.69 L 197.19 104.80 L 198.80 103.19 L 200.69 101.85 L 202.78 100.85 L 205.04 100.23 L 207.50 100.00 L 209.96 100.23 L 212.22 100.85 L 214.31 101.85 L 216.20 103.19 L 217.81 104.80 L 219.15 106.69 L 220.15 108.78 L 220.77 111.04 L 221.00 113.50 L 220.77 115.96 L 220.15 118.22 L 219.15 120.31 L 217.81 122.20 L 216.20 123.81 L 214.31 125.15 L 212.22 126.15 L 209.96 126.77 L 207.50 127.00 Z M 207.50 104.00 L 205.77 104.16 L 204.18 104.60 L 202.71 105.30 L 200.79 106.79 L 199.30 108.71 L 198.60 110.18 L 198.16 111.77 L 198.00 113.50 L 198.16 115.23 L 198.60 116.82 L 199.30 118.29 L 200.79 120.21 L 202.71 121.70 L 204.18 122.40 L 205.77 122.84 L 207.50 123.00 L 209.23 122.84 L 210.82 122.40 L 212.29 121.70 L 214.21 120.21 L 215.70 118.29 L 216.40 116.82 L 216.84 115.23 L 217.00 113.50 L 216.84 111.77 L 216.40 110.18 L 215.70 108.71 L 214.21 106.79 L 212.29 105.30 L 210.82 104.60 L 209.23 104.16 L 207.50 104.00 Z" fill="#ffffff" fill-rule="nonzero" group-id="1,9" node-id="164" stroke="none" target-height="27" target-width="27" target-x="194" target-y="100"/><path d="M 333.00 450.50 L 332.77 452.96 L 332.16 455.22 L 331.16 457.31 L 329.82 459.21 L 328.21 460.82 L 326.31 462.16 L 324.22 463.16 L 321.96 463.77 L 319.50 464.00 L 317.04 463.77 L 314.78 463.16 L 312.69 462.16 L 310.79 460.82 L 309.18 459.21 L 307.84 457.31 L 306.84 455.22 L 306.23 452.96 L 306.00 450.50 L 306.23 448.04 L 306.84 445.78 L 307.84 443.69 L 309.18 441.79 L 310.79 440.18 L 312.69 438.84 L 314.78 437.84 L 317.04 437.23 L 319.50 437.00 L 321.96 437.23 L 324.22 437.84 L 326.31 438.84 L 328.21 440.18 L 329.82 441.79 L 331.16 443.69 L 332.16 445.78 L 332.77 448.04 L 333.00 450.50 Z" fill="none" group-id="1,10" node-id="168" stroke="none" target-height="27" target-width="27" target-x="306" target-y="437"/><path d="M 319.50 464.00 L 317.04 463.77 L 314.78 463.15 L 312.69 462.15 L 310.80 460.81 L 309.19 459.20 L 307.85 457.31 L 306.85 455.22 L 306.23 452.96 L 306.00 450.50 L 306.23 448.04 L 306.85 445.78 L 307.85 443.69 L 309.19 441.80 L 310.80 440.19 L 312.69 438.85 L 314.78 437.85 L 317.04 437.23 L 319.50 437.00 L 321.96 437.23 L 324.22 437.85 L 326.31 438.85 L 328.20 440.19 L 329.81 441.80 L 331.15 443.69 L 332.15 445.78 L 332.77 448.04 L 333.00 450.50 L 332.77 452.96 L 332.15 455.22 L 331.15 457.31 L 329.81 459.20 L 328.20 460.81 L 326.31 462.15 L 324.22 463.15 L 321.96 463.77 L 319.50 464.00 Z M 319.50 441.00 L 317.77 441.16 L 316.18 441.60 L 314.71 442.30 L 312.79 443.79 L 311.30 445.71 L 310.60 447.18 L 310.16 448.77 L 310.00 450.50 L 310.16 452.23 L 310.60 453.82 L 311.30 455.29 L 312.79 457.21 L 314.71 458.70 L 316.18 459.40 L 317.77 459.84 L 319.50 460.00 L 321.23 459.84 L 322.82 459.40 L 324.29 458.70 L 326.21 457.21 L 327.70 455.29 L 328.40 453.82 L 328.84 452.23 L 329.00 450.50 L 328.84 448.77 L 328.40 447.18 L 327.70 445.71 L 326.21 443.79 L 324.29 442.30 L 322.82 441.60 L 321.23 441.16 L 319.50 441.00 Z" fill="#ffffff" fill-rule="nonzero" group-id="1,10" node-id="170" stroke="none" target-height="27" target-width="27" target-x="306" target-y="437"/><path d="M 457.00 98.50 L 456.84 100.23 L 456.41 101.82 L 455.70 103.29 L 454.22 105.22 L 452.29 106.70 L 450.82 107.41 L 449.23 107.84 L 447.50 108.00 L 445.77 107.84 L 444.18 107.41 L 442.71 106.70 L 440.78 105.22 L 439.30 103.29 L 438.59 101.82 L 438.16 100.23 L 438.00 98.50 L 438.16 96.77 L 438.59 95.18 L 439.30 93.71 L 440.78 91.78 L 442.71 90.30 L 444.18 89.59 L 445.77 89.16 L 447.50 89.00 L 449.23 89.16 L 450.82 89.59 L 452.29 90.30 L 454.22 91.78 L 455.70 93.71 L 456.41 95.18 L 456.84 96.77 L 457.00 98.50 Z" fill="none" group-id="1,11" node-id="174" stroke="none" target-height="19" target-width="19" target-x="438" target-y="89"/><path d="M 447.50 108.00 L 445.77 107.84 L 444.18 107.40 L 442.71 106.70 L 440.79 105.21 L 439.30 103.29 L 438.60 101.82 L 438.16 100.23 L 438.00 98.50 L 438.16 96.77 L 438.60 95.18 L 439.30 93.71 L 440.79 91.79 L 442.71 90.30 L 444.18 89.60 L 445.77 89.16 L 447.50 89.00 L 449.23 89.16 L 450.82 89.60 L 452.29 90.30 L 454.21 91.79 L 455.70 93.71 L 456.40 95.18 L 456.84 96.77 L 457.00 98.50 L 456.84 100.23 L 456.40 101.82 L 455.70 103.29 L 454.21 105.21 L 452.29 106.70 L 450.82 107.40 L 449.23 107.84 L 447.50 108.00 Z M 447.50 93.00 L 446.01 93.21 L 444.73 93.75 L 443.61 94.61 L 442.75 95.73 L 442.21 97.01 L 442.00 98.50 L 442.21 99.99 L 442.75 101.27 L 443.61 102.39 L 444.73 103.25 L 446.01 103.79 L 447.50 104.00 L 448.99 103.79 L 450.27 103.25 L 451.39 102.39 L 452.25 101.27 L 452.79 99.99 L 453.00 98.50 L 452.79 97.01 L 452.25 95.73 L 451.39 94.61 L 450.27 93.75 L 448.99 93.21 L 447.50 93.00 Z" fill="#ffffff" fill-rule="nonzero" group-id="1,11" node-id="176" stroke="none" target-height="19" target-width="19" target-x="438" target-y="89"/><path d="M 692.00 49.00 L 691.75 51.74 L 691.06 54.25 L 689.95 56.57 L 688.46 58.68 L 686.68 60.46 L 684.57 61.95 L 682.25 63.06 L 679.74 63.75 L 677.00 64.00 L 674.26 63.75 L 671.75 63.06 L 669.43 61.95 L 667.32 60.46 L 665.54 58.68 L 664.05 56.57 L 662.94 54.25 L 662.25 51.74 L 662.00 49.00 L 662.25 46.26 L 662.94 43.75 L 664.05 41.43 L 665.54 39.32 L 667.32 37.54 L 669.43 36.05 L 671.75 34.94 L 674.26 34.25 L 677.00 34.00 L 679.74 34.25 L 682.25 34.94 L 684.57 36.05 L 686.68 37.54 L 688.46 39.32 L 689.95 41.43 L 691.06 43.75 L 691.75 46.26 L 692.00 49.00 Z" fill="none" group-id="1,12" node-id="180" stroke="none" target-height="30" target-width="30" target-x="662" target-y="34"/><path d="M 677.00 64.00 L 674.27 63.74 L 671.76 63.06 L 669.44 61.95 L 667.33 60.46 L 665.54 58.67 L 664.05 56.56 L 662.94 54.24 L 662.26 51.73 L 662.00 49.00 L 662.26 46.27 L 662.94 43.76 L 664.05 41.44 L 665.54 39.33 L 667.33 37.54 L 669.44 36.05 L 671.76 34.94 L 674.27 34.26 L 677.00 34.00 L 679.73 34.26 L 682.24 34.94 L 684.56 36.05 L 686.67 37.54 L 688.46 39.33 L 689.95 41.44 L 691.06 43.76 L 691.74 46.27 L 692.00 49.00 L 691.74 51.73 L 691.06 54.24 L 689.95 56.56 L 688.46 58.67 L 686.67 60.46 L 684.56 61.95 L 682.24 63.06 L 679.73 63.74 L 677.00 64.00 Z M 677.00 38.00 L 675.00 38.19 L 673.16 38.69 L 671.45 39.50 L 669.91 40.60 L 668.60 41.91 L 667.50 43.45 L 666.69 45.16 L 666.19 47.00 L 666.00 49.00 L 666.19 51.00 L 666.69 52.84 L 667.50 54.55 L 668.60 56.09 L 669.91 57.40 L 671.45 58.50 L 673.16 59.31 L 675.00 59.81 L 677.00 60.00 L 679.00 59.81 L 680.84 59.31 L 682.55 58.50 L 684.09 57.40 L 685.40 56.09 L 686.50 54.55 L 687.31 52.84 L 687.81 51.00 L 688.00 49.00 L 687.81 47.00 L 687.31 45.16 L 686.50 43.45 L 685.40 41.91 L 684.09 40.60 L 682.55 39.50 L 680.84 38.69 L 679.00 38.19 L 677.00 38.00 Z" fill="#92d9f5" fill-rule="nonzero" group-id="1,12" node-id="182" stroke="none" target-height="30" target-width="30" target-x="662" target-y="34"/><path d="M 377.00 37.00 L 376.67 39.41 L 375.77 41.54 L 374.36 43.36 L 372.54 44.77 L 370.41 45.67 L 368.00 46.00 L 365.59 45.67 L 363.46 44.77 L 361.64 43.36 L 360.23 41.54 L 359.33 39.41 L 359.00 37.00 L 359.33 34.59 L 360.23 32.46 L 361.64 30.64 L 363.46 29.23 L 365.59 28.33 L 368.00 28.00 L 370.41 28.33 L 372.54 29.23 L 374.36 30.64 L 375.77 32.46 L 376.67 34.59 L 377.00 37.00 Z" fill="none" group-id="1,13" node-id="186" stroke="none" target-height="18" target-width="18" target-x="359" target-y="28"/><path d="M 368.00 46.00 L 365.59 45.67 L 363.46 44.77 L 361.64 43.36 L 360.23 41.54 L 359.33 39.41 L 359.00 37.00 L 359.33 34.59 L 360.23 32.46 L 361.64 30.64 L 363.46 29.23 L 365.59 28.33 L 368.00 28.00 L 370.41 28.33 L 372.54 29.23 L 374.36 30.64 L 375.77 32.46 L 376.67 34.59 L 377.00 37.00 L 376.67 39.41 L 375.77 41.54 L 374.36 43.36 L 372.54 44.77 L 370.41 45.67 L 368.00 46.00 Z M 368.00 32.00 L 366.64 32.19 L 365.48 32.68 L 364.47 33.47 L 363.68 34.48 L 363.19 35.64 L 363.00 37.00 L 363.19 38.36 L 363.68 39.52 L 364.47 40.53 L 365.48 41.32 L 366.64 41.81 L 368.00 42.00 L 369.36 41.81 L 370.52 41.32 L 371.53 40.53 L 372.32 39.52 L 372.81 38.36 L 373.00 37.00 L 372.81 35.64 L 372.32 34.48 L 371.53 33.47 L 370.52 32.68 L 369.36 32.19 L 368.00 32.00 Z" fill="#92d9f5" fill-rule="nonzero" group-id="1,13" node-id="188" stroke="none" target-height="18" target-width="18" target-x="359" target-y="28"/><path d="M 722.00 200.00 L 721.75 202.74 L 721.06 205.25 L 719.95 207.57 L 718.46 209.68 L 716.68 211.46 L 714.57 212.95 L 712.25 214.06 L 709.74 214.75 L 707.00 215.00 L 704.26 214.75 L 701.75 214.06 L 699.43 212.95 L 697.32 211.46 L 695.54 209.68 L 694.05 207.57 L 692.94 205.25 L 692.25 202.74 L 692.00 200.00 L 692.25 197.26 L 692.94 194.75 L 694.05 192.43 L 695.54 190.32 L 697.32 188.54 L 699.43 187.05 L 701.75 185.94 L 704.26 185.25 L 707.00 185.00 L 709.74 185.25 L 712.25 185.94 L 714.57 187.05 L 716.68 188.54 L 718.46 190.32 L 719.95 192.43 L 721.06 194.75 L 721.75 197.26 L 722.00 200.00 Z" fill="none" group-id="1,14" node-id="192" stroke="none" target-height="30" target-width="30" target-x="692" target-y="185"/><path d="M 707.00 215.00 L 704.27 214.74 L 701.76 214.06 L 699.44 212.95 L 697.33 211.46 L 695.54 209.67 L 694.05 207.56 L 692.94 205.24 L 692.26 202.73 L 692.00 200.00 L 692.26 197.27 L 692.94 194.76 L 694.05 192.44 L 695.54 190.33 L 697.33 188.54 L 699.44 187.05 L 701.76 185.94 L 704.27 185.26 L 707.00 185.00 L 709.73 185.26 L 712.24 185.94 L 714.56 187.05 L 716.67 188.54 L 718.46 190.33 L 719.95 192.44 L 721.06 194.76 L 721.74 197.27 L 722.00 200.00 L 721.74 202.73 L 721.06 205.24 L 719.95 207.56 L 718.46 209.67 L 716.67 211.46 L 714.56 212.95 L 712.24 214.06 L 709.73 214.74 L 707.00 215.00 Z M 707.00 189.00 L 705.00 189.19 L 703.16 189.69 L 701.45 190.50 L 699.91 191.60 L 698.60 192.91 L 697.50 194.45 L 696.69 196.16 L 696.19 198.00 L 696.00 200.00 L 696.19 202.00 L 696.69 203.84 L 697.50 205.55 L 698.60 207.09 L 699.91 208.40 L 701.45 209.50 L 703.16 210.31 L 705.00 210.81 L 707.00 211.00 L 709.00 210.81 L 710.84 210.31 L 712.55 209.50 L 714.09 208.40 L 715.40 207.09 L 716.50 205.55 L 717.31 203.84 L 717.81 202.00 L 718.00 200.00 L 717.81 198.00 L 717.31 196.16 L 716.50 194.45 L 715.40 192.91 L 714.09 191.60 L 712.55 190.50 L 710.84 189.69 L 709.00 189.19 L 707.00 189.00 Z" fill="#ffffff" fill-rule="nonzero" group-id="1,14" node-id="194" stroke="none" target-height="30" target-width="30" target-x="692" target-y="185"/></g></svg>