<svg height="540" node-id="1" sillyvg="true" template-height="540" template-width="960" version="1.1" viewBox="0 0 960 540" width="960" xmlns="http://www.w3.org/2000/svg" xmlns:xlink="http://www.w3.org/1999/xlink"><defs node-id="56"></defs><g node-id="163"><g node-id="166"><path d="M 820.00 509.85 C 820.00 322.07 667.78 169.85 480.00 169.85 C 292.22 169.85 140.00 322.07 140.00 509.85" fill="#69baf9" fill-opacity="0.2" fill-rule="nonzero" group-id="1,4" id="路径_1806" node-id="3" stroke="none" target-height="340" target-width="680" target-x="140" target-y="169.85"/></g><g node-id="167"><path d="M 727.62 509.85 C 727.62 373.04 616.71 262.13 479.90 262.13 C 343.09 262.13 232.18 373.04 232.18 509.85" fill="#69baf9" fill-opacity="0.5" fill-rule="nonzero" group-id="1,5" id="路径_1807" node-id="4" stroke="none" target-height="247.72101" target-width="495.43896" target-x="232.179" target-y="262.129"/></g><path d="M 635.60 509.85 C 635.82 424.10 566.48 354.40 480.72 354.18 C 394.97 353.96 325.27 423.30 325.05 509.06 C 325.05 509.32 325.05 509.59 325.05 509.85" fill="#69baf9" fill-opacity="0.7" fill-rule="nonzero" group-id="1,6" id="路径_1808" node-id="5" stroke="none" target-height="155.888" target-width="310.766" target-x="325.052" target-y="353.962"/></g><g node-id="164"><path d="M 735.00 510.00 L 471.00 510.00 L 469.64 509.81 L 468.48 509.32 L 467.46 508.54 L 466.68 507.52 L 466.19 506.36 L 466.00 505.00 L 466.19 503.64 L 466.68 502.48 L 467.46 501.46 L 468.48 500.68 L 469.64 500.19 L 471.00 500.00 L 735.00 500.00 L 736.36 500.19 L 737.52 500.68 L 738.54 501.46 L 739.32 502.48 L 739.81 503.64 L 740.00 505.00 L 739.81 506.36 L 739.32 507.52 L 738.54 508.54 L 737.52 509.32 L 736.36 509.81 L 735.00 510.00 Z" fill="#3d3d63" fill-rule="nonzero" group-id="2" node-id="75" stroke="none" target-height="10" target-width="274" target-x="466" target-y="500"/><path d="M 814.00 510.00 L 756.00 510.00 L 754.64 509.81 L 753.48 509.32 L 752.46 508.54 L 751.68 507.52 L 751.19 506.36 L 751.00 505.00 L 751.19 503.64 L 751.68 502.48 L 752.46 501.46 L 753.48 500.68 L 754.64 500.19 L 756.00 500.00 L 814.00 500.00 L 815.36 500.19 L 816.52 500.68 L 817.54 501.46 L 818.32 502.48 L 818.81 503.64 L 819.00 505.00 L 818.81 506.36 L 818.32 507.52 L 817.54 508.54 L 816.52 509.32 L 815.36 509.81 L 814.00 510.00 Z" fill="#3d3d63" fill-rule="nonzero" group-id="2" node-id="77" stroke="none" target-height="10" target-width="68" target-x="751" target-y="500"/><path d="M 419.00 510.00 L 359.00 510.00 L 357.64 509.81 L 356.48 509.32 L 355.46 508.54 L 354.68 507.52 L 354.19 506.36 L 354.00 505.00 L 354.19 503.64 L 354.68 502.48 L 355.46 501.46 L 356.48 500.68 L 357.64 500.19 L 359.00 500.00 L 419.00 500.00 L 420.36 500.19 L 421.52 500.68 L 422.54 501.46 L 423.32 502.48 L 423.81 503.64 L 424.00 505.00 L 423.81 506.36 L 423.32 507.52 L 422.54 508.54 L 421.52 509.32 L 420.36 509.81 L 419.00 510.00 Z" fill="#3d3d63" fill-rule="nonzero" group-id="2" node-id="79" stroke="none" target-height="10" target-width="70" target-x="354" target-y="500"/><path d="M 324.00 510.00 L 146.00 510.00 L 144.64 509.81 L 143.48 509.32 L 142.46 508.54 L 141.68 507.52 L 141.19 506.36 L 141.00 505.00 L 141.19 503.64 L 141.68 502.48 L 142.46 501.46 L 143.48 500.68 L 144.64 500.19 L 146.00 500.00 L 324.00 500.00 L 325.36 500.19 L 326.52 500.68 L 327.54 501.46 L 328.32 502.48 L 328.81 503.64 L 329.00 505.00 L 328.81 506.36 L 328.32 507.52 L 327.54 508.54 L 326.52 509.32 L 325.36 509.81 L 324.00 510.00 Z" fill="#3d3d63" fill-rule="nonzero" group-id="2" node-id="81" stroke="none" target-height="10" target-width="188" target-x="141" target-y="500"/><path d="M 447.00 505.00 L 446.81 506.07 L 446.34 507.00 L 445.54 507.83 L 443.98 508.67 L 442.00 509.00 L 440.02 508.67 L 438.46 507.83 L 437.66 507.00 L 437.19 506.07 L 437.00 505.00 L 437.19 503.93 L 437.66 503.00 L 438.46 502.17 L 440.02 501.33 L 442.00 501.00 L 443.98 501.33 L 445.54 502.17 L 446.34 503.00 L 446.81 503.93 L 447.00 505.00 Z" fill="#3d3d63" fill-rule="nonzero" group-id="2" id="椭圆_336" node-id="11" stroke="none" target-height="8" target-width="10" target-x="437" target-y="501"/></g><path d="M 680.00 280.00 C 680.00 390.46 590.46 480.00 480.00 480.00 C 369.54 480.00 280.00 390.46 280.00 280.00 C 280.00 169.54 369.54 80.00 480.00 80.00 C 590.46 80.00 680.00 169.54 680.00 280.00 Z" fill="#e39a6d" fill-rule="nonzero" node-id="85" stroke="none" target-height="400" target-width="400" target-x="280" target-y="80"/><path d="M 480.00 480.00 C 369.72 480.00 280.00 390.28 280.00 280.00 C 280.00 169.72 369.72 80.00 480.00 80.00 C 590.28 80.00 680.00 169.72 680.00 280.00 C 680.00 390.28 590.28 480.00 480.00 480.00 Z M 480.00 106.00 C 384.06 106.00 306.00 184.06 306.00 280.00 C 306.00 375.94 384.06 454.00 480.00 454.00 C 575.94 454.00 654.00 375.94 654.00 280.00 C 654.00 184.06 575.94 106.00 480.00 106.00 Z" fill="#3d3d63" fill-rule="nonzero" node-id="87" stroke="none" target-height="400" target-width="400" target-x="280" target-y="80"/><path d="M 423.00 371.50 C 423.00 384.48 412.48 395.00 399.50 395.00 C 386.52 395.00 376.00 384.48 376.00 371.50 C 376.00 358.52 386.52 348.00 399.50 348.00 C 412.48 348.00 423.00 358.52 423.00 371.50 Z" fill="#fbd45c" fill-rule="nonzero" id="椭圆_492" node-id="14" stroke="none" target-height="47" target-width="47" target-x="376" target-y="348"/><path d="M 604.00 204.50 C 604.00 214.72 595.72 223.00 585.50 223.00 C 575.28 223.00 567.00 214.72 567.00 204.50 C 567.00 194.28 575.28 186.00 585.50 186.00 C 595.72 186.00 604.00 194.28 604.00 204.50 Z" fill="#fbd45c" fill-rule="nonzero" id="椭圆_496" node-id="15" stroke="none" target-height="37" target-width="37" target-x="567" target-y="186"/><path d="M 393.00 239.50 C 393.00 248.61 385.61 256.00 376.50 256.00 C 367.39 256.00 360.00 248.61 360.00 239.50 C 360.00 230.39 367.39 223.00 376.50 223.00 C 385.61 223.00 393.00 230.39 393.00 239.50 Z" fill="#70626f" fill-rule="nonzero" id="椭圆_493" node-id="16" stroke="none" target-height="33" target-width="33" target-x="360" target-y="223"/><path d="M 461.00 361.50 C 461.00 370.61 453.61 378.00 444.50 378.00 C 435.39 378.00 428.00 370.61 428.00 361.50 C 428.00 352.39 435.39 345.00 444.50 345.00 C 453.61 345.00 461.00 352.39 461.00 361.50 Z" fill="#70626f" fill-rule="nonzero" id="椭圆_494" node-id="17" stroke="none" target-height="33" target-width="33" target-x="428" target-y="345"/><path d="M 654.01 280.00 C 654.10 376.01 576.34 453.91 480.33 454.00 C 480.22 454.00 480.11 454.00 480.00 454.00 C 618.78 411.18 654.01 280.00 654.01 280.00 Z" fill="#c57d51" fill-rule="nonzero" id="路径_2279" node-id="18" stroke="none" target-height="174.001" target-width="174.09601" target-x="480" target-y="280"/><path d="M 353.80 445.22 C 304.26 445.22 269.62 429.80 255.77 401.36 C 242.27 373.65 250.91 337.34 280.11 299.12 C 284.47 293.41 292.63 292.32 298.34 296.68 C 304.04 301.04 305.13 309.19 300.77 314.90 C 277.85 344.90 270.17 371.57 279.14 389.98 C 288.89 409.99 319.01 420.59 361.76 419.08 C 408.82 417.41 465.12 401.68 520.30 374.80 C 575.48 347.92 622.56 313.27 652.88 277.25 C 680.42 244.51 690.63 214.26 680.88 194.25 C 672.94 177.95 651.51 167.74 620.52 165.49 C 613.36 164.97 607.98 158.74 608.50 151.58 C 609.02 144.42 615.25 139.04 622.41 139.56 C 663.02 142.51 692.09 157.89 704.25 182.86 C 718.92 212.97 707.74 252.43 672.77 293.99 C 640.16 332.73 590.06 369.73 531.69 398.17 C 473.31 426.61 413.29 443.27 362.69 445.06 C 359.67 445.17 356.71 445.22 353.80 445.22 Z" fill="#3d3d63" fill-rule="nonzero" node-id="94" stroke="none" target-height="306.185" target-width="476.65802" target-x="242.266" target-y="139.038"/><path d="M 640.00 342.00 C 640.00 366.85 619.85 387.00 595.00 387.00 C 570.15 387.00 550.00 366.85 550.00 342.00 C 550.00 317.15 570.15 297.00 595.00 297.00 C 619.85 297.00 640.00 317.15 640.00 342.00 Z" fill="#70626f" fill-rule="nonzero" node-id="96" stroke="none" target-height="90" target-width="90" target-x="550" target-y="297"/><path d="M 595.00 387.00 C 570.19 387.00 550.00 366.81 550.00 342.00 C 550.00 317.19 570.19 297.00 595.00 297.00 C 619.81 297.00 640.00 317.19 640.00 342.00 C 640.00 366.81 619.81 387.00 595.00 387.00 Z M 595.00 317.00 C 581.22 317.00 570.00 328.21 570.00 342.00 C 570.00 355.79 581.22 367.00 595.00 367.00 C 608.78 367.00 620.00 355.79 620.00 342.00 C 620.00 328.21 608.78 317.00 595.00 317.00 Z" fill="#3d3d63" fill-rule="nonzero" node-id="98" stroke="none" target-height="90" target-width="90" target-x="550" target-y="297"/><path d="M 577.00 408.00 C 577.00 413.52 572.52 418.00 567.00 418.00 C 561.48 418.00 557.00 413.52 557.00 408.00 C 557.00 402.48 561.48 398.00 567.00 398.00 C 572.52 398.00 577.00 402.48 577.00 408.00 Z" fill="#70626f" fill-rule="nonzero" id="椭圆_495" node-id="22" stroke="none" target-height="20" target-width="20" target-x="557" target-y="398"/><path d="M 527.00 265.00 C 521.33 265.00 515.83 263.89 510.65 261.70 C 505.65 259.59 501.16 256.56 497.30 252.70 C 493.44 248.84 490.41 244.35 488.30 239.35 C 486.11 234.18 485.00 228.68 485.00 223.01 L 485.00 223.00 L 485.00 218.10 L 480.10 218.00 C 475.25 217.89 470.70 215.93 467.29 212.45 C 463.88 208.97 462.00 204.37 462.00 199.50 C 462.00 194.56 463.92 189.91 467.42 186.42 C 470.91 182.92 475.56 181.00 480.50 181.00 C 483.42 181.00 486.21 181.66 488.79 182.96 C 491.26 184.20 493.46 186.02 495.16 188.21 L 498.15 192.09 L 502.09 189.18 C 505.62 186.57 509.51 184.55 513.65 183.16 C 517.94 181.73 522.43 181.00 527.00 181.00 C 532.67 181.00 538.17 182.11 543.35 184.30 C 548.35 186.41 552.84 189.44 556.70 193.30 C 560.56 197.16 563.59 201.65 565.70 206.65 C 567.89 211.83 569.00 217.33 569.00 223.00 C 569.00 228.67 567.89 234.17 565.70 239.35 C 563.59 244.35 560.56 248.84 556.70 252.70 C 552.84 256.56 548.35 259.59 543.35 261.70 C 538.17 263.89 532.67 265.00 527.00 265.00 Z" fill="#736574" fill-rule="nonzero" node-id="101" stroke="none" target-height="84.00101" target-width="107.00198" target-x="461.999" target-y="180.999"/><path d="M 527.00 260.00 C 547.40 260.00 564.00 243.40 564.00 223.00 C 564.00 202.60 547.40 186.00 527.00 186.00 C 519.03 186.00 511.44 188.49 505.06 193.21 C 503.27 194.52 501.19 195.16 499.13 195.16 C 496.13 195.16 493.17 193.82 491.20 191.27 C 488.62 187.92 484.72 186.00 480.50 186.00 C 473.06 186.00 467.00 192.06 467.00 199.50 C 467.00 206.79 472.93 212.85 480.21 213.00 C 485.65 213.12 490.00 217.56 490.00 223.00 C 490.00 243.40 506.60 260.00 527.00 260.00 M 527.00 270.00 C 501.04 270.00 480.00 248.96 480.00 223.00 C 480.00 223.00 480.00 223.00 480.00 223.00 C 467.25 222.73 457.00 212.31 457.00 199.50 C 457.00 186.52 467.52 176.00 480.50 176.00 C 488.08 176.00 494.82 179.59 499.12 185.16 C 506.92 179.40 516.56 176.00 527.00 176.00 C 552.96 176.00 574.00 197.04 574.00 223.00 C 574.00 248.96 552.96 270.00 527.00 270.00 Z" fill="#3d3d63" fill-rule="nonzero" node-id="103" stroke="none" target-height="94" target-width="117" target-x="457" target-y="176"/><path d="M 689.66 100.35 L 656.97 100.35 L 655.40 100.03 L 654.14 99.17 L 653.29 97.91 L 652.97 96.35 L 653.29 94.78 L 654.14 93.52 L 655.40 92.67 L 656.97 92.35 L 689.66 92.35 L 691.23 92.67 L 692.49 93.52 L 693.34 94.78 L 693.66 96.35 L 693.34 97.91 L 692.49 99.17 L 691.23 100.03 L 689.66 100.35 Z" fill="#1663ed" fill-rule="nonzero" group-id="3,7" node-id="107" stroke="none" target-height="8" target-width="40.69098" target-x="652.97" target-y="92.346"/><path d="M 673.32 116.69 L 671.75 116.37 L 670.49 115.52 L 669.64 114.26 L 669.32 112.69 L 669.32 80.00 L 669.64 78.43 L 670.49 77.17 L 671.75 76.32 L 673.32 76.00 L 674.88 76.32 L 676.14 77.17 L 677.00 78.43 L 677.32 80.00 L 677.32 112.69 L 677.00 114.26 L 676.14 115.52 L 674.88 116.37 L 673.32 116.69 Z" fill="#1663ed" fill-rule="nonzero" group-id="3,7" node-id="109" stroke="none" target-height="40.692" target-width="8" target-x="669.316" target-y="76"/><path d="M 644.91 251.71 L 643.34 251.39 L 642.08 250.54 L 641.23 249.28 L 640.91 247.71 L 640.91 240.39 L 641.23 238.82 L 642.08 237.56 L 643.34 236.71 L 644.91 236.39 L 646.48 236.71 L 647.74 237.56 L 648.59 238.82 L 648.91 240.39 L 648.91 247.71 L 648.59 249.28 L 647.74 250.54 L 646.48 251.39 L 644.91 251.71 Z" fill="#1663ed" fill-rule="nonzero" group-id="3,8,13,14" node-id="115" stroke="none" target-height="15.320984" target-width="8" target-x="640.908" target-y="236.389"/><path d="M 644.91 219.02 L 643.34 218.70 L 642.08 217.85 L 641.23 216.59 L 640.91 215.02 L 640.91 207.70 L 641.23 206.13 L 642.08 204.87 L 643.34 204.02 L 644.91 203.70 L 646.48 204.02 L 647.74 204.87 L 648.59 206.13 L 648.91 207.70 L 648.91 215.02 L 648.59 216.59 L 647.74 217.85 L 646.48 218.70 L 644.91 219.02 Z" fill="#1663ed" fill-rule="nonzero" group-id="3,8,13,14" node-id="117" stroke="none" target-height="15.322006" target-width="8" target-x="640.908" target-y="203.696"/><path d="M 632.22 231.70 L 624.90 231.70 L 623.33 231.38 L 622.07 230.53 L 621.22 229.27 L 620.90 227.70 L 621.22 226.13 L 622.07 224.87 L 623.33 224.02 L 624.90 223.70 L 632.22 223.70 L 633.79 224.02 L 635.05 224.87 L 635.90 226.13 L 636.22 227.70 L 635.90 229.27 L 635.05 230.53 L 633.79 231.38 L 632.22 231.70 Z" fill="#1663ed" fill-rule="nonzero" group-id="3,8,13,15" node-id="121" stroke="none" target-height="8" target-width="15.32196" target-x="620.901" target-y="223.703"/><path d="M 664.91 231.70 L 657.59 231.70 L 656.03 231.38 L 654.77 230.53 L 653.91 229.27 L 653.59 227.70 L 653.91 226.13 L 654.77 224.87 L 656.03 224.02 L 657.59 223.70 L 664.91 223.70 L 666.48 224.02 L 667.74 224.87 L 668.60 226.13 L 668.91 227.70 L 668.60 229.27 L 667.74 230.53 L 666.48 231.38 L 664.91 231.70 Z" fill="#1663ed" fill-rule="nonzero" group-id="3,8,13,15" node-id="123" stroke="none" target-height="8" target-width="15.320984" target-x="653.594" target-y="223.703"/><path d="M 630.76 245.85 L 629.27 245.56 L 627.93 244.68 L 627.05 243.34 L 626.76 241.85 L 627.05 240.36 L 627.93 239.02 L 633.11 233.85 L 634.44 232.96 L 635.94 232.67 L 637.43 232.96 L 638.77 233.84 L 639.65 235.18 L 639.94 236.67 L 639.65 238.17 L 638.77 239.50 L 633.59 244.68 L 632.26 245.56 L 630.76 245.85 Z" fill="#1663ed" fill-rule="nonzero" group-id="3,8,13,16" node-id="127" stroke="none" target-height="13.177124" target-width="13.1762085" target-x="626.76215" target-y="232.67316"/><path d="M 653.88 222.73 L 652.38 222.44 L 651.05 221.56 L 650.17 220.23 L 649.88 218.73 L 650.17 217.24 L 651.05 215.90 L 656.23 210.73 L 657.56 209.85 L 659.06 209.56 L 660.55 209.85 L 661.88 210.73 L 662.77 212.06 L 663.06 213.56 L 662.77 215.05 L 661.88 216.39 L 656.71 221.56 L 655.37 222.44 L 653.88 222.73 Z" fill="#1663ed" fill-rule="nonzero" group-id="3,8,13,16" node-id="129" stroke="none" target-height="13.17543" target-width="13.17865" target-x="649.8771" target-y="209.5574"/><path d="M 659.06 245.85 L 657.56 245.56 L 656.23 244.68 L 651.05 239.50 L 650.17 238.17 L 649.88 236.67 L 650.17 235.18 L 651.05 233.84 L 652.38 232.96 L 653.88 232.67 L 655.37 232.96 L 656.71 233.84 L 661.88 239.02 L 662.77 240.36 L 663.06 241.85 L 662.77 243.34 L 661.88 244.68 L 660.55 245.56 L 659.06 245.85 Z" fill="#1663ed" fill-rule="nonzero" group-id="3,8,13,17" node-id="133" stroke="none" target-height="13.176498" target-width="13.177124" target-x="649.87805" target-y="232.67361"/><path d="M 635.94 222.73 L 634.44 222.44 L 633.11 221.56 L 627.93 216.38 L 627.05 215.05 L 626.76 213.56 L 627.05 212.06 L 627.93 210.73 L 629.27 209.84 L 630.76 209.56 L 632.26 209.84 L 633.59 210.73 L 638.77 215.91 L 639.65 217.24 L 639.94 218.73 L 639.65 220.23 L 638.77 221.56 L 637.43 222.45 L 635.94 222.73 Z" fill="#1663ed" fill-rule="nonzero" group-id="3,8,13,17" node-id="135" stroke="none" target-height="13.176849" target-width="13.178345" target-x="626.7604" target-y="209.55582"/><path d="M 765.93 286.77 L 769.02 287.06 L 771.86 287.83 L 774.48 289.09 L 776.86 290.77 L 778.88 292.79 L 780.56 295.17 L 781.82 297.79 L 782.59 300.63 L 782.88 303.72 L 782.59 306.82 L 781.82 309.65 L 780.56 312.28 L 778.88 314.66 L 776.86 316.67 L 774.48 318.36 L 771.86 319.61 L 769.02 320.38 L 765.93 320.67 L 762.83 320.38 L 760.00 319.61 L 757.37 318.36 L 754.99 316.67 L 752.97 314.66 L 751.29 312.28 L 750.04 309.65 L 749.26 306.82 L 748.98 303.72 L 749.26 300.63 L 750.04 297.79 L 751.29 295.17 L 752.97 292.79 L 754.99 290.77 L 757.37 289.09 L 760.00 287.83 L 762.83 287.06 L 765.93 286.77 Z" fill="none" group-id="3,9" node-id="141" stroke="none" target-height="33.899994" target-width="33.900024" target-x="748.976" target-y="286.772"/><path d="M 765.92 294.77 L 763.53 295.10 L 761.41 296.00 L 759.60 297.40 L 758.20 299.21 L 757.30 301.33 L 756.98 303.72 L 757.30 306.12 L 758.20 308.24 L 759.60 310.05 L 761.41 311.45 L 763.53 312.35 L 765.92 312.67 L 768.32 312.35 L 770.44 311.45 L 772.25 310.05 L 773.65 308.24 L 774.55 306.12 L 774.88 303.72 L 774.55 301.33 L 773.65 299.21 L 772.25 297.40 L 770.44 296.00 L 768.32 295.10 L 765.92 294.77 M 765.92 286.77 L 769.02 287.06 L 771.85 287.83 L 774.48 289.09 L 776.86 290.77 L 778.88 292.79 L 780.56 295.17 L 781.82 297.79 L 782.59 300.63 L 782.88 303.72 L 782.59 306.82 L 781.82 309.65 L 780.56 312.28 L 778.88 314.65 L 776.86 316.67 L 774.48 318.36 L 771.86 319.61 L 769.02 320.38 L 765.93 320.67 L 762.83 320.38 L 760.00 319.61 L 757.37 318.36 L 754.99 316.67 L 752.97 314.66 L 751.29 312.28 L 750.04 309.65 L 749.26 306.82 L 748.98 303.72 L 749.26 300.63 L 750.04 297.79 L 751.29 295.17 L 752.97 292.79 L 754.99 290.77 L 757.37 289.09 L 760.00 287.83 L 762.83 287.06 L 765.92 286.77 Z" fill="#1663ed" fill-rule="nonzero" group-id="3,9" node-id="143" stroke="none" target-height="33.898987" target-width="33.900024" target-x="748.976" target-y="286.772"/><path d="M 672.29 448.29 L 674.87 448.53 L 677.24 449.18 L 679.43 450.22 L 681.41 451.63 L 683.09 453.31 L 684.49 455.29 L 685.54 457.48 L 686.18 459.84 L 686.42 462.42 L 686.18 465.00 L 685.54 467.36 L 684.49 469.55 L 683.09 471.53 L 681.41 473.22 L 679.43 474.62 L 677.24 475.66 L 674.87 476.31 L 672.29 476.55 L 669.72 476.31 L 667.35 475.66 L 665.16 474.62 L 663.18 473.22 L 661.50 471.53 L 660.10 469.55 L 659.05 467.36 L 658.41 465.00 L 658.17 462.42 L 658.41 459.84 L 659.05 457.48 L 660.10 455.29 L 661.50 453.31 L 663.18 451.63 L 665.16 450.22 L 667.35 449.18 L 669.72 448.53 L 672.29 448.29 Z" fill="none" group-id="3,10" node-id="147" stroke="none" target-height="28.253998" target-width="28.254028" target-x="658.16797" target-y="448.294"/><path d="M 672.29 456.29 L 670.63 456.53 L 669.21 457.13 L 667.96 458.09 L 667.00 459.33 L 666.40 460.76 L 666.17 462.42 L 666.40 464.08 L 667.00 465.51 L 667.96 466.75 L 669.21 467.72 L 670.63 468.31 L 672.29 468.55 L 673.96 468.31 L 675.38 467.72 L 676.63 466.75 L 677.59 465.51 L 678.19 464.08 L 678.42 462.42 L 678.19 460.76 L 677.59 459.33 L 676.62 458.09 L 675.38 457.13 L 673.96 456.53 L 672.29 456.29 M 672.29 448.29 L 674.87 448.53 L 677.24 449.18 L 679.43 450.22 L 681.41 451.63 L 683.09 453.31 L 684.49 455.29 L 685.54 457.48 L 686.18 459.84 L 686.42 462.42 L 686.18 465.00 L 685.54 467.36 L 684.49 469.55 L 683.09 471.53 L 681.41 473.22 L 679.43 474.62 L 677.24 475.66 L 674.87 476.31 L 672.29 476.55 L 669.72 476.31 L 667.35 475.66 L 665.16 474.62 L 663.18 473.22 L 661.50 471.53 L 660.10 469.55 L 659.05 467.36 L 658.41 465.00 L 658.17 462.42 L 658.41 459.84 L 659.05 457.48 L 660.10 455.29 L 661.50 453.31 L 663.18 451.63 L 665.16 450.22 L 667.35 449.18 L 669.72 448.53 L 672.29 448.29 Z" fill="#1663ed" fill-rule="nonzero" group-id="3,10" node-id="149" stroke="none" target-height="28.253998" target-width="28.254028" target-x="658.16797" target-y="448.294"/><path d="M 241.28 173.69 L 245.00 174.04 L 248.40 174.97 L 251.56 176.47 L 254.41 178.49 L 256.84 180.92 L 258.86 183.77 L 260.36 186.93 L 261.29 190.33 L 261.64 194.05 L 261.29 197.76 L 260.36 201.17 L 258.86 204.32 L 256.84 207.18 L 254.41 209.60 L 251.56 211.62 L 248.40 213.13 L 245.00 214.06 L 241.28 214.40 L 237.57 214.06 L 234.16 213.13 L 231.01 211.62 L 228.15 209.60 L 225.73 207.18 L 223.70 204.32 L 222.20 201.17 L 221.27 197.76 L 220.92 194.05 L 221.27 190.33 L 222.20 186.93 L 223.70 183.77 L 225.73 180.92 L 228.15 178.49 L 231.01 176.47 L 234.16 174.97 L 237.57 174.04 L 241.28 173.69 Z" fill="none" group-id="3,11" node-id="153" stroke="none" target-height="40.711" target-width="40.713013" target-x="220.92499" target-y="173.692"/><path d="M 241.28 181.69 L 239.03 181.90 L 236.96 182.47 L 235.05 183.38 L 233.32 184.61 L 231.84 186.08 L 230.61 187.82 L 229.70 189.73 L 229.14 191.80 L 228.92 194.05 L 229.14 196.30 L 229.70 198.36 L 230.61 200.28 L 231.84 202.01 L 233.32 203.49 L 235.05 204.71 L 236.96 205.63 L 239.03 206.19 L 241.28 206.40 L 243.53 206.19 L 245.60 205.63 L 247.51 204.71 L 249.25 203.49 L 250.72 202.01 L 251.95 200.28 L 252.86 198.36 L 253.43 196.30 L 253.64 194.05 L 253.43 191.80 L 252.86 189.73 L 251.95 187.82 L 250.72 186.08 L 249.25 184.61 L 247.51 183.38 L 245.60 182.47 L 243.53 181.90 L 241.28 181.69 M 241.28 173.69 L 245.00 174.04 L 248.40 174.97 L 251.56 176.47 L 254.41 178.49 L 256.84 180.92 L 258.86 183.77 L 260.36 186.93 L 261.29 190.33 L 261.64 194.05 L 261.29 197.76 L 260.36 201.17 L 258.86 204.32 L 256.84 207.18 L 254.41 209.60 L 251.56 211.62 L 248.40 213.13 L 245.00 214.06 L 241.28 214.40 L 237.57 214.06 L 234.16 213.13 L 231.01 211.62 L 228.15 209.60 L 225.73 207.18 L 223.70 204.32 L 222.20 201.17 L 221.27 197.76 L 220.92 194.05 L 221.27 190.33 L 222.20 186.93 L 223.70 183.77 L 225.73 180.92 L 228.15 178.49 L 231.01 176.47 L 234.16 174.97 L 237.57 174.04 L 241.28 173.69 Z" fill="#1663ed" fill-rule="nonzero" group-id="3,11" node-id="155" stroke="none" target-height="40.711" target-width="40.712006" target-x="220.92499" target-y="173.692"/><path d="M 201.70 419.78 L 177.00 419.78 L 175.43 419.46 L 174.17 418.60 L 173.32 417.34 L 173.00 415.78 L 173.32 414.21 L 174.17 412.95 L 175.43 412.10 L 177.00 411.78 L 201.70 411.78 L 203.27 412.10 L 204.53 412.95 L 205.38 414.21 L 205.70 415.78 L 205.38 417.34 L 204.53 418.60 L 203.27 419.46 L 201.70 419.78 Z" fill="#1663ed" fill-rule="nonzero" group-id="3,12" node-id="159" stroke="none" target-height="8" target-width="32.703003" target-x="173" target-y="411.776"/><path d="M 189.35 431.18 L 187.78 430.86 L 186.52 430.01 L 185.67 428.75 L 185.35 427.18 L 185.35 402.47 L 185.67 400.91 L 186.52 399.65 L 187.78 398.79 L 189.35 398.47 L 190.92 398.79 L 192.18 399.65 L 193.03 400.91 L 193.35 402.47 L 193.35 427.18 L 193.03 428.75 L 192.18 430.01 L 190.92 430.86 L 189.35 431.18 Z" fill="#1663ed" fill-rule="nonzero" group-id="3,12" node-id="161" stroke="none" target-height="32.70401" target-width="8" target-x="185.352" target-y="398.474"/></svg>